<?xml version="1.0" standalone="no"?>
<!DOCTYPE svg PUBLIC "-//W3C//DTD SVG 20010904//EN"
 "http://www.w3.org/TR/2001/REC-SVG-20010904/DTD/svg10.dtd">
<svg version="1.0" xmlns="http://www.w3.org/2000/svg"
 width="533.000000pt" height="533.000000pt" viewBox="0 0 533.000000 533.000000"
 preserveAspectRatio="xMidYMid meet">
<metadata>
Created by potrace 1.14, written by Peter Selinger 2001-2017
</metadata>
<g transform="translate(0.000000,533.000000) scale(0.100000,-0.100000)"
fill="#000000" stroke="none">
<path d="M2309 5314 c-98 -17 -228 -59 -304 -96 -53 -27 -223 -129 -250 -151
-5 -4 -56 -41 -111 -82 -110 -81 -245 -210 -394 -375 -131 -146 -228 -246
-349 -364 -286 -278 -411 -420 -529 -598 -121 -184 -190 -386 -222 -648 -8
-65 -5 -413 4 -482 12 -93 19 -133 47 -273 16 -82 39 -181 50 -220 51 -182 91
-309 109 -350 5 -11 22 -54 39 -95 38 -97 65 -155 96 -205 14 -22 29 -49 34
-60 35 -79 214 -267 313 -328 66 -41 199 -108 263 -132 68 -26 199 -73 220
-79 6 -2 19 -6 30 -10 11 -5 45 -17 75 -28 102 -37 265 -121 328 -170 35 -27
120 -108 189 -179 70 -71 149 -147 178 -169 114 -88 283 -163 445 -197 127
-26 354 -24 486 5 292 64 768 311 1135 588 313 236 575 555 739 898 52 107
126 293 135 336 2 8 12 49 24 90 72 266 96 485 96 885 -1 370 -17 579 -58 760
-23 97 -91 236 -152 310 -85 104 -162 163 -413 315 -279 169 -339 217 -443
355 -73 99 -81 107 -160 186 -141 141 -402 293 -704 412 -121 47 -287 104
-327 111 -7 1 -22 5 -33 9 -11 3 -38 8 -60 12 -22 3 -47 7 -55 10 -72 22 -369
27 -471 9z"/>
</g>
</svg>
