<?xml version="1.0" standalone="no"?>
<!DOCTYPE svg PUBLIC "-//W3C//DTD SVG 20010904//EN"
 "http://www.w3.org/TR/2001/REC-SVG-20010904/DTD/svg10.dtd">
<svg version="1.0" xmlns="http://www.w3.org/2000/svg"
 width="812.000000pt" height="812.000000pt" viewBox="0 0 812.000000 812.000000"
 preserveAspectRatio="xMidYMid meet">
<metadata>
Created by potrace 1.14, written by Peter Selinger 2001-2017
</metadata>
<g transform="translate(0.000000,812.000000) scale(0.100000,-0.100000)"
fill="#000000" stroke="none">
<path d="M3865 8104 c-38 -7 -82 -14 -96 -17 -61 -12 -241 -78 -312 -115 -81
-43 -200 -120 -235 -152 -12 -11 -26 -20 -32 -20 -6 0 -8 -4 -5 -10 3 -5 2
-10 -3 -10 -7 0 -97 -87 -152 -149 -28 -31 -90 -121 -90 -131 0 -6 -4 -10 -8
-10 -25 0 -158 -318 -177 -420 -3 -19 -8 -46 -11 -60 -24 -122 -23 -416 1
-539 2 -12 7 -42 9 -65 3 -22 8 -52 11 -66 22 -110 30 -146 50 -225 19 -74 42
-157 59 -210 21 -70 37 -126 38 -132 0 -5 3 -12 8 -18 4 -5 13 -28 20 -50 35
-111 143 -373 237 -575 20 -41 53 -113 74 -158 22 -46 39 -90 39 -98 0 -8 5
-14 10 -14 6 0 10 -7 10 -15 0 -9 12 -44 26 -78 43 -100 234 -662 225 -662 -1
0 3 -13 9 -30 7 -16 16 -43 20 -60 4 -16 29 -100 54 -187 25 -86 47 -165 49
-175 2 -10 7 -25 10 -33 6 -16 58 -207 61 -225 5 -32 53 -109 88 -140 59 -54
121 -78 203 -81 59 -2 80 2 130 25 112 53 151 110 191 279 13 59 32 135 40
170 9 35 17 68 18 75 2 7 5 19 8 27 3 8 20 69 37 135 18 66 36 129 40 140 5
11 33 94 64 185 57 170 91 270 106 305 5 11 28 67 51 125 24 58 58 138 77 178
18 41 33 75 33 77 0 2 26 59 59 127 111 233 138 293 201 453 34 88 68 174 75
190 18 42 84 245 107 330 10 39 21 77 23 85 9 29 45 185 51 220 3 19 8 46 10
60 3 14 8 41 10 60 3 19 7 46 9 60 10 49 19 187 19 280 0 138 -11 235 -40 340
-8 30 -17 62 -19 70 -2 8 -4 16 -5 18 -2 1 -3 5 -4 10 -16 69 -90 221 -163
332 -68 103 -248 285 -349 352 -155 103 -335 178 -514 215 -97 20 -361 24
-455 7z m249 -898 c21 8 142 -24 199 -52 94 -48 155 -102 214 -190 81 -120
108 -240 89 -384 -10 -76 -14 -88 -52 -168 -27 -57 -55 -95 -108 -147 -112
-111 -243 -164 -391 -159 -125 4 -184 21 -283 79 -236 140 -329 431 -221 692
17 39 37 77 45 84 8 6 14 15 14 20 0 16 100 109 154 144 68 43 156 73 243 81
37 4 70 8 73 11 2 2 6 0 8 -6 2 -5 9 -8 16 -5z"/>
<path d="M1655 5339 c-83 -11 -128 -19 -170 -31 -22 -6 -42 -12 -45 -13 -53
-11 -258 -98 -270 -114 -3 -3 -16 -11 -30 -17 -38 -17 -178 -125 -235 -182
-83 -83 -165 -183 -165 -201 0 -6 -4 -11 -10 -11 -5 0 -10 -6 -10 -14 0 -8 -3
-16 -8 -18 -12 -5 -67 -116 -105 -209 -34 -84 -61 -183 -75 -277 -8 -60 -8
-326 1 -372 4 -19 10 -46 12 -60 3 -14 7 -36 10 -49 5 -27 32 -115 45 -146 25
-63 82 -179 106 -217 15 -23 26 -45 25 -47 -2 -2 1 -7 6 -10 4 -3 33 -37 64
-76 67 -83 130 -147 190 -195 24 -19 46 -38 47 -42 2 -4 8 -8 13 -8 6 0 36
-17 67 -38 71 -47 138 -80 175 -86 35 -6 95 21 103 46 3 10 10 18 15 18 17 0
9 79 -16 154 -31 92 -37 127 -39 241 -10 386 267 722 654 793 57 11 232 10
285 -2 52 -11 140 -38 151 -47 6 -5 14 -6 17 -2 4 3 7 0 7 -7 0 -7 3 -10 6 -7
4 4 20 -3 35 -14 16 -11 29 -18 29 -15 0 4 30 -16 68 -43 98 -72 156 -137 229
-256 23 -37 53 -107 64 -148 13 -49 14 -56 33 -162 18 -103 29 -130 69 -170
44 -44 83 -61 143 -64 87 -4 164 41 204 119 14 27 17 53 15 105 -2 39 -5 80
-8 91 -3 12 -8 38 -11 58 -3 19 -11 57 -17 83 -6 27 -13 59 -15 73 -10 54 -61
243 -74 275 -5 11 -14 38 -21 60 -15 51 -98 264 -112 290 -6 11 -12 22 -12 25
-4 25 -158 297 -196 344 -5 6 -35 45 -67 86 -88 112 -179 198 -306 288 -109
78 -303 166 -426 193 -19 4 -44 9 -55 12 -82 19 -297 28 -390 16z"/>
<path d="M6125 5330 c-55 -9 -111 -21 -125 -25 -25 -9 -33 -11 -60 -18 -66
-17 -214 -89 -305 -148 -68 -44 -190 -142 -230 -185 -97 -104 -210 -252 -252
-331 -32 -61 -49 -90 -63 -107 -8 -10 -14 -21 -14 -25 1 -3 -15 -40 -35 -81
-34 -71 -138 -335 -131 -335 0 0 -9 -27 -20 -60 -11 -32 -22 -68 -24 -80 -2
-11 -14 -56 -26 -100 -25 -95 -24 -91 -51 -230 -12 -60 -23 -132 -24 -160 -5
-148 127 -252 271 -214 81 21 145 101 157 194 3 22 8 51 11 65 2 14 7 39 10
55 10 61 39 142 76 212 44 83 40 77 116 161 259 285 692 339 1017 125 71 -47
207 -178 207 -200 0 -7 4 -13 9 -13 14 0 89 -158 112 -235 14 -48 22 -108 25
-190 4 -126 -7 -197 -46 -303 -31 -83 -25 -123 27 -168 39 -34 93 -30 176 12
40 20 74 39 77 43 3 4 28 21 55 39 28 17 66 46 85 63 68 61 130 120 130 125 0
3 10 15 23 28 36 37 57 66 57 75 0 5 4 11 8 13 23 9 108 161 152 271 31 77 63
193 77 277 15 95 5 422 -14 453 -3 5 -7 22 -10 39 -7 49 -61 196 -100 273 -93
186 -240 355 -415 475 -47 33 -95 63 -105 67 -10 3 -30 15 -45 25 -16 11 -28
17 -28 13 0 -3 -10 1 -22 9 -42 27 -218 79 -343 102 -80 15 -288 11 -390 -6z"/>
<path d="M2681 2970 c-62 -19 -124 -84 -141 -146 -17 -61 -17 -278 0 -339 17
-60 82 -126 143 -146 38 -12 248 -14 1394 -14 l1348 1 47 24 c57 28 80 52 111
111 21 42 22 57 21 190 -2 165 -4 173 -38 227 -26 42 -64 74 -112 93 -22 9
-362 12 -1378 13 -1165 1 -1354 -1 -1395 -14z"/>
<path d="M1198 2365 c-2 -2 -19 -5 -38 -8 -19 -3 -47 -9 -61 -15 -25 -10 -26
-15 -26 -71 0 -34 2 -61 4 -61 3 0 13 4 23 10 10 5 40 12 66 16 27 3 50 7 52
9 6 6 75 -17 88 -29 31 -32 16 -98 -34 -146 -21 -19 -61 -55 -91 -80 -108 -90
-116 -101 -115 -147 1 -24 2 -47 3 -51 1 -5 97 -9 215 -9 l215 1 -1 25 c0 14
1 31 2 36 1 6 2 22 1 38 l-1 27 -112 0 -111 0 44 31 c115 82 167 162 163 248
-5 116 -72 173 -205 177 -43 1 -79 1 -81 -1z"/>
<path d="M1736 2352 c-43 -16 -90 -52 -121 -93 -47 -61 -61 -208 -32 -310 17
-57 71 -138 94 -138 6 -1 19 -8 27 -17 9 -8 16 -13 16 -9 0 3 9 1 19 -4 11 -6
43 -12 73 -13 121 -4 197 38 246 134 25 52 32 84 32 163 2 108 -25 182 -86
239 -63 59 -180 80 -268 48z m167 -146 c29 -33 39 -65 39 -132 0 -77 -15 -124
-50 -155 -37 -33 -76 -36 -117 -8 -31 22 -40 35 -51 79 -8 31 -4 165 5 165 2
0 4 8 6 17 4 21 30 48 59 64 28 14 85 -1 109 -30z"/>
<path d="M6198 2352 c-40 -10 -57 -19 -58 -30 -2 -53 -1 -105 4 -110 3 -3 16
0 29 6 65 32 144 34 187 3 19 -14 25 -27 25 -59 1 -47 -15 -68 -115 -152 -35
-30 -70 -59 -76 -65 -7 -5 -24 -19 -38 -29 -23 -16 -26 -26 -26 -76 l0 -56
215 -1 c241 -1 216 -10 219 80 l1 42 -109 3 c-93 2 -106 5 -96 17 7 8 16 15
21 15 10 0 45 28 96 76 65 61 91 171 59 248 -15 35 -65 78 -106 92 -42 13
-172 11 -232 -4z"/>
<path d="M6759 2366 c-2 -3 -16 -7 -29 -9 -90 -16 -88 -14 -92 -79 -2 -44 1
-62 11 -66 7 -3 16 0 20 5 7 11 59 24 103 25 58 1 95 -12 106 -38 29 -63 9
-98 -117 -203 -24 -20 -54 -45 -67 -56 -12 -11 -31 -27 -42 -37 -15 -12 -20
-29 -21 -70 l0 -54 217 0 217 1 0 63 1 62 -110 0 -110 0 45 32 c24 18 60 47
80 65 117 107 106 291 -20 339 -41 16 -182 30 -192 20z"/>
<path d="M3076 2083 c-2 -3 -10 -6 -18 -7 -28 -5 -77 -36 -102 -66 -15 -19
-40 -78 -62 -148 -44 -140 -79 -232 -136 -349 -46 -96 -48 -101 -50 -153 -2
-63 2 -76 33 -123 74 -112 236 -128 330 -34 20 21 129 223 129 241 0 2 8 21
17 42 9 22 18 44 19 49 1 6 13 37 25 70 35 96 75 238 74 265 -4 97 -72 189
-155 207 -27 6 -99 10 -104 6z"/>
<path d="M3995 2076 c-117 -32 -193 -113 -224 -241 -28 -112 -35 -138 -66
-240 -15 -49 -30 -100 -32 -113 -3 -12 -9 -25 -14 -28 -5 -3 -9 -12 -9 -21 0
-40 -216 -537 -253 -582 -6 -7 -12 -18 -13 -25 -1 -6 -9 -29 -16 -51 -16 -45
-16 -71 1 -132 15 -55 19 -59 313 -353 165 -165 265 -257 292 -270 54 -25 146
-21 201 7 22 12 151 132 289 270 254 254 294 297 301 329 2 11 8 33 14 51 5
17 7 34 4 37 -3 3 -7 20 -8 38 -1 18 -11 51 -22 73 -11 22 -38 74 -59 115 -21
41 -39 77 -39 80 0 3 -6 14 -12 25 -13 26 -103 232 -103 239 0 2 -5 17 -12 33
-6 15 -12 30 -13 33 -2 5 -5 15 -21 55 -4 11 -8 22 -9 25 -1 3 -18 57 -39 120
-21 63 -39 124 -41 135 -9 50 -17 79 -25 95 -5 10 -11 32 -12 50 -1 17 -6 34
-10 36 -4 3 -8 13 -8 23 0 27 -62 108 -106 139 -73 52 -166 70 -249 48z"/>
<path d="M4925 2067 c-105 -51 -145 -140 -116 -257 7 -25 14 -55 17 -68 6 -31
78 -231 99 -278 73 -161 108 -228 137 -257 126 -128 341 -54 362 123 5 45 -12
130 -26 130 -4 0 -8 4 -8 9 0 5 -17 47 -39 93 -21 45 -46 103 -54 128 -8 25
-21 59 -28 75 -7 17 -13 35 -14 40 -14 61 -52 166 -68 190 -62 88 -168 117
-262 72z"/>
</g>
</svg>
