<?xml version="1.0" encoding="UTF-8" standalone="no"?>
<svg
   xmlns:dc="http://purl.org/dc/elements/1.1/"
   xmlns:cc="http://creativecommons.org/ns#"
   xmlns:rdf="http://www.w3.org/1999/02/22-rdf-syntax-ns#"
   xmlns:svg="http://www.w3.org/2000/svg"
   xmlns="http://www.w3.org/2000/svg"
   height="406.44748"
   width="354.81821"
   version="1.1"
   viewBox="0 0 354.81821 406.44749"
   data-name="Layer 1"
   id="Layer_1">
  <metadata
     id="metadata73">
    <rdf:RDF>
      <cc:Work
         rdf:about="">
        <dc:format>image/svg+xml</dc:format>
        <dc:type
           rdf:resource="http://purl.org/dc/dcmitype/StillImage" />
        <dc:title></dc:title>
      </cc:Work>
    </rdf:RDF>
  </metadata>
  <defs
     id="defs4">
    <style
       id="style2">.cls-1{fill:#e23e36;}</style>
  </defs>
  <g
     transform="translate(0.00425399)"
     data-name="Layer 2"
     id="Layer_2">
    <g
       data-name="Layer 1-2"
       id="Layer_1-2">
      <rect
         style="fill:#e23e36"
         id="rect6"
         rx="11.6"
         height="33.040001"
         width="154.03999"
         y="257.03"
         x="100.43"
         class="cls-1" />
      <path
         style="fill:#e23e36"
         id="path8"
         transform="translate(0.11)"
         d="m 295.52,138.89 a 63.71,63.71 0 0 0 -47.78,16.55 c -4.37,3.53 -27.13,24.21 -35.43,77.42 a 10.74,10.74 0 0 0 9,12.23 11,11 0 0 0 1.62,0.12 v 0 a 10.71,10.71 0 0 0 10.6,-9 c 0.57,-3.7 1.22,-7.19 1.92,-10.49 a 39.735516,39.735516 0 1 1 76.07,23 38.77,38.77 0 0 1 -1.41,3.91 6,6 0 0 0 8,7.77 63.87,63.87 0 0 0 -22.58,-121.45 z"
         class="cls-1" />
      <path
         style="fill:#e23e36"
         id="path10"
         transform="translate(0.11)"
         d="m 224.69,301.9 v 0 a 10.77,10.77 0 0 0 -10.75,10.77 10.89,10.89 0 0 0 0.37,2.78 134.81,134.81 0 0 0 10.94,28.16 10.74,10.74 0 0 0 16,3.54 v 0 a 10.72,10.72 0 0 0 3,-13.53 102.41,102.41 0 0 1 -4.46,-9.56 119.07,119.07 0 0 1 -4.73,-14.14 10.77,10.77 0 0 0 -10.37,-8.02 z"
         class="cls-1" />
      <path
         style="fill:#e23e36"
         id="path12"
         transform="translate(0.11)"
         d="M 59.17,139 A 63.69,63.69 0 0 1 107,155.59 c 4.36,3.52 27.13,24.2 35.42,77.41 a 10.74,10.74 0 0 1 -9,12.23 11.07,11.07 0 0 1 -1.63,0.12 v 0 a 10.73,10.73 0 0 1 -10.61,-9 q -0.85,-5.55 -1.91,-10.49 a 39.734017,39.734017 0 1 0 -76,23.22 c 0.38,1.24 0.82,2.47 1.32,3.67 a 5.94,5.94 0 0 1 -8,7.76 A 63.87,63.87 0 0 1 59.17,139 Z"
         class="cls-1" />
      <path
         style="fill:#e23e36"
         id="path14"
         transform="translate(0.11)"
         d="m 130,302 v 0 a 10.76,10.76 0 0 1 10.75,10.77 10.53,10.53 0 0 1 -0.37,2.79 136.06,136.06 0 0 1 -10.94,28.15 10.75,10.75 0 0 1 -14.52,4.49 10.88,10.88 0 0 1 -1.48,-0.94 v 0 a 10.7,10.7 0 0 1 -3,-13.53 c 1.37,-2.59 2.92,-5.8 4.46,-9.57 A 119.07,119.07 0 0 0 119.63,310 10.77,10.77 0 0 1 130,302 Z"
         class="cls-1" />
      <path
         style="fill:#e23e36"
         id="path16"
         transform="translate(0.11)"
         d="m 177.49,0 a 67.37,67.37 0 0 0 -67.35,67.35 c 0,27.37 11.49,59.17 25,87.07 10.53,21.79 21.85,62.14 27.08,81.88 a 15.4,15.4 0 0 0 14.9,11.46 v 0 a 15.37,15.37 0 0 0 15.06,-12.2 353.21,353.21 0 0 1 27.71,-81.14 c 13.49,-27.9 25,-59.7 25,-87.07 A 67.36,67.36 0 0 0 177.52,0 Z m 0,101 a 27.76,27.76 0 1 1 27.76,-27.76 v 0 A 27.74,27.74 0 0 1 177.52,101 Z"
         class="cls-1" />
      <path
         style="fill:#e23e36"
         id="path18"
         transform="translate(0.11)"
         d="m 211.73,365.13 v 0 A 206.07,206.07 0 0 1 192.22,313.8 15.15,15.15 0 0 0 177.49,302 v 0 a 15.16,15.16 0 0 0 -14.73,11.78 205.54,205.54 0 0 1 -19.51,51.33 v 0 a 11.79,11.79 0 0 0 2,13.95 L 169.14,403 a 0.08,0.08 0 0 1 0.07,0.05 11.8,11.8 0 0 0 16.62,-0.05 l 23.88,-23.88 a 11.78,11.78 0 0 0 2.02,-13.99 z"
         class="cls-1" />
    </g>
  </g>
  <path
     style="fill:#e23e36"
     id="path48"
     d="m 49.014254,310.83 v 6.39 h -21.66 v -5.61 l 7.89,-6.55 c 3.46,-2.85 5,-4.48 5,-7.05 0,-2.74 -1.91,-3.82 -4.8,-3.82 a 16.8,16.8 0 0 0 -7.77,1.81 v -6.35 a 26.53,26.53 0 0 1 9.89,-1.75 c 6.43,0 10.79,3 10.79,9.2 0,5.25 -3.26,8.67 -8.23,12.13 l -2.27,1.58 z"
     class="cls-1" />
  <path
     style="fill:#e23e36"
     id="path50"
     d="m 52.354254,303 c 0,-9.28 4.89,-15.08 13.18,-15.08 8.29,0 13.19,5.77 13.19,15.08 0,9.31 -4.88,15.08 -13.19,15.08 -8.31,0 -13.18,-5.82 -13.18,-15.08 z m 18.93,0 c 0,-5.49 -2.21,-8.8 -5.75,-8.8 -3.54,0 -5.69,3.34 -5.69,8.8 0,5.46 2.11,8.79 5.69,8.79 3.58,0 5.69,-3.35 5.69,-8.79 z"
     class="cls-1" />
  <path
     style="fill:#e23e36"
     id="path52"
     d="m 302.46425,310.83 v 6.39 h -21.66 v -5.61 l 7.95,-6.55 c 3.46,-2.85 5,-4.48 5,-7.05 0,-2.74 -1.92,-3.82 -4.8,-3.82 a 16.8,16.8 0 0 0 -7.74,1.83 v -6.35 a 26.53,26.53 0 0 1 9.89,-1.75 c 6.43,0 10.78,3 10.78,9.2 0,5.25 -3.25,8.67 -8.23,12.13 l -2.28,1.58 z"
     class="cls-1" />
  <path
     style="fill:#e23e36"
     id="path54"
     d="m 327.55425,310.83 v 6.39 h -21.65 v -5.61 l 7.9,-6.55 c 3.46,-2.85 5,-4.48 5,-7.05 0,-2.74 -1.91,-3.82 -4.8,-3.82 a 16.8,16.8 0 0 0 -7.74,1.83 v -6.35 a 26.39,26.39 0 0 1 9.94,-1.75 c 6.44,0 10.8,3 10.8,9.2 0,5.25 -3.27,8.67 -8.23,12.13 l -2.28,1.58 z"
     class="cls-1" />
</svg>
