<?xml version="1.0" encoding="UTF-8" standalone="no"?>
<svg
   xmlns:dc="http://purl.org/dc/elements/1.1/"
   xmlns:cc="http://creativecommons.org/ns#"
   xmlns:rdf="http://www.w3.org/1999/02/22-rdf-syntax-ns#"
   xmlns:svg="http://www.w3.org/2000/svg"
   xmlns="http://www.w3.org/2000/svg"
   height="123.80067"
   width="624.82074"
   xml:space="preserve"
   viewBox="0 0 624.82074 123.80067"
   y="0px"
   x="0px"
   id="Layer_1"
   version="1.1"><metadata
   id="metadata13"><rdf:RDF><cc:Work
       rdf:about=""><dc:format>image/svg+xml</dc:format><dc:type
         rdf:resource="http://purl.org/dc/dcmitype/StillImage" /><dc:title></dc:title></cc:Work></rdf:RDF></metadata><defs
   id="defs11" />
<style
   id="style2"
   type="text/css">
	.st0{fill:#009DDC;}
	.st1{fill:#7AC143;}
</style>

<path
   style="fill:#7ac143"
   id="path6"
   d="m 173.42077,82.3 c -3.8,19.7 -16.3,31.3 -33.4,28.1 -20.4,-3.8 -29,-30.5 -24.8,-52.5 3.8,-19.9 16.4,-31.5 33.4,-28.3 20.2,3.7 29,30.5 24.8,52.7 z m 108.3,8.8 c -1.6,0 -2.9,1 -4.9,2.8 -3.8,3.3 -14,14.9 -32.9,14.9 -17.2,0 -27.9,-17.4 -27.9,-43.9 0,-20.7 10,-36 24.2,-36 14.2,0 18.8,5.4 21.4,18.8 0.6,3.8 2.4,6.4 5.5,6.4 2,0 3.7,-1 6.3,-3.4 8.6,-7.3 10.8,-7.3 10.8,-11.7 0,-9.2 -18,-22.5 -40.1,-22.5 -20.3,-0.2 -38.8,11 -47.8,28.9 -8.4,-17.4 -26.3,-28.7 -50.1,-28.9 -34,-0.2 -59.000002,22.9 -59.200002,54.2 -0.2,9.1 2,18.1 6.2,26.1 -7.1,1.2 -9.7,8.7 -29.9,8.7 h -17 c -8.4,0 -7.6,-8.7 -7.6,-13.3 V 17.8 c 0,-11.1 8.2,-7.4 8.2,-13.9 0,-2 -1.3,-3.9 -4.9,-3.9 H 6.0207685 c -3.6,0 -5.30000003,2 -5.30000003,3.9 0,6.6 8.40000003,2.9 8.40000003,13.9 0,0 0,49.6 0.3,75.8 0,7.7 -1,11.7 -3.4,15.1 -4,5.7 -7.2,8.6 -5.60000003,12.8 0.90000003,2.5 4.90000003,2.1 11.59999953,2.1 h 76.9 c 2.5,0 4.7,-1.6 5.4,-3.9 1.8,-6.2 3.4,-11.3 4.3,-14.7 9.700002,11.6 24.900002,18.7 43.900002,18.8 23.5,0.1 43,-11 52.6,-28.6 8.2,18.3 26.3,28.4 47,28.4 22.2,0 36.4,-11.2 42.1,-21.9 1,-1.7 1.6,-3.6 1.8,-5.6 0.3,-2.4 -1.5,-4.6 -3.9,-4.9 -0.1,-0.1 -0.3,-0.1 -0.4,-0.1 m 54.5,17.8 c -11.6,0 -19.6,-7.2 -19.6,-18.1 0,-11.2 8.6,-17.7 23.4,-17.7 6.3,-0.1 12.6,1 18.6,3.2 l 2.7,20.3 c -6.2,7.4 -15.3,11.9 -25.1,12.3 m 60.9,-2 c -10.8,-2 -10.3,-3.8 -12.4,-18.1 l -4.7,-33.3 c -3.1,-20.8 -12.8,-36.1 -38.7,-36.1 -16.3,0 -30.8,7 -38.1,15.6 -2.4,2.6 -4.9,5.4 -4.9,8.2 -0.1,2.6 2,4.8 4.7,4.8 v 0 c 2.4,-0.3 4.6,-1.2 6.5,-2.6 6.7,-5.4 14.7,-9.6 23.6,-9.6 12.6,0 20.6,6.6 23.5,26.3 l 0.4,2.4 c -7.7,-2.3 -15.8,-3.4 -23.9,-3.4 -26.7,0 -42.2,14.3 -42.2,32.1 0,17.9 13.9,30.3 35.7,30.3 14,0.2 27.5,-5.2 37.3,-15 3.9,9.6 11.6,14.4 20.4,14.4 12.8,0 16.2,-7.9 16.2,-12.4 0,-2.1 -1.2,-3.3 -3.4,-3.6 m 163.4,2 c -11.6,0 -19.6,-7.2 -19.6,-18.1 0,-11.2 8.6,-17.7 23.4,-17.7 6.3,-0.1 12.6,1 18.6,3.2 l 2.7,20.3 c -6.2,7.4 -15.3,11.9 -25.1,12.3 m 60.9,-2 c -10.8,-2 -10.3,-3.8 -12.4,-18.1 l -4.7,-33.3 c -3,-20.8 -12.8,-36.1 -38.7,-36.1 -16.3,0 -30.8,7 -38.1,15.6 -2.4,2.6 -4.9,5.4 -4.9,8.2 -0.1,2.6 2,4.8 4.7,4.8 v 0 c 2.4,-0.3 4.6,-1.2 6.5,-2.6 6.7,-5.4 14.7,-9.6 23.6,-9.6 12.6,0 20.6,6.6 23.5,26.3 l 0.4,2.4 c -7.7,-2.3 -15.8,-3.4 -23.9,-3.4 -26.7,0 -42.2,14.3 -42.2,32.1 0,17.9 13.9,30.3 35.7,30.3 14,0.2 27.5,-5.2 37.3,-15 3.9,9.6 11.6,14.4 20.4,14.4 12.8,0 16.2,-7.9 16.2,-12.4 0,-2.1 -1.2,-3.3 -3.4,-3.6 m -115,-8.7 -5.3,-37.5 c -2.4,-18.9 -10.2,-39.5 -32.8,-39.5 -15.7,0 -26.7,9.2 -33.2,19.7 V 30.3 c 0,-5 -1.4,-8.2 -5.5,-8.2 -1.8,0 -4.3,0.6 -16,5.9 -12.6,5.6 -12.9,8.2 -12.9,11.8 0,8.4 10,2.2 10,14.8 v 45.8 c 0,15.5 -8.7,10.4 -8.7,18.3 0,2.4 1.6,4.8 5.7,4.8 h 30.4 c 2.8,0.3 5.4,-1.7 5.7,-4.5 0,-0.1 0,-0.2 0,-0.3 0,-7.9 -8.7,-2.8 -8.7,-18.3 V 68.7 c 0,-20.3 11.6,-28.5 22.2,-28.5 13.7,0 18,13.6 19.8,25.6 l 4.3,29.9 c 0.4,2.5 0.7,5.1 0.8,7.6 0,11.6 -7.8,7.9 -7.8,15 0,2.8 2.2,5 6.7,5 h 28.4 c 3.7,0 6.3,-1.8 6.3,-4.8 0,-7.9 -6.9,-1.9 -9.4,-20.3"
   class="st1" />
</svg>