<svg xmlns="http://www.w3.org/2000/svg" xmlns:xlink="http://www.w3.org/1999/xlink" width="637.874" height="93.51" xmlns:v="https://vecta.io/nano"><g transform="translate(-597.366 -275.03)"><defs><path id="A" d="M1026.58 292.79a5.6 5.6 0 0 1 5.66 5.65c0 3.11-2.49 5.65-5.66 5.65-3.12 0-5.66-2.54-5.66-5.65 0-3.16 2.54-5.65 5.66-5.65zm-65.14 0a5.6 5.6 0 0 1 5.66 5.65c0 3.11-2.49 5.65-5.66 5.65-3.12 0-5.66-2.54-5.66-5.65 0-3.16 2.54-5.65 5.66-5.65zm-322.52-17.76c10.48 0 18.98 8.5 18.98 18.98s-8.5 18.98-18.98 18.98-18.98-8.5-18.98-18.98a18.98 18.98 0 0 1 18.98-18.98zm-38.57 2.27l10.5 4.42c-.41 1.04-.76 2.11-1.05 3.21-4.34 16.2 5.27 32.85 21.47 37.19 14.58 3.91 29.52-3.49 35.53-16.82l10.5 4.42c-8.18 18.5-28.83 28.79-48.98 23.4-22.27-5.97-35.49-28.86-29.52-51.13a42.22 42.22 0 0 1 1.55-4.69zm183.39 43.28c-8.47 0-14.39 6.48-14.96 15.45h29.35c-.21-9.02-5.88-15.45-14.39-15.45zm281.95.1c-9.56 0-15.84 7.26-15.84 19.96s6.29 19.96 15.84 19.96c9.56 0 15.79-7.26 15.79-19.96s-6.23-19.96-15.79-19.96zm-143.11 0c-9.14 0-15.64 7.98-15.64 19.96 0 12.03 6.49 19.96 15.64 19.96 9.56 0 15.48-7.62 15.48-19.96 0-12.23-5.92-19.96-15.48-19.96zm203.06-7.93c11.84 0 18.7 7.62 18.7 19.86v35h-9.04v-33.39c0-8.71-4.1-13.48-12.41-13.48-8.52 0-14.08 6.01-14.08 15.14v31.73h-9.04v-53.92h8.52v8.61h.21c3.01-5.82 8.77-9.55 17.14-9.55zm-94.54.93v53.92h-9.04v-53.92zm-21.72-20.89v74.82h-9.04v-74.82zm-21.71 0v74.82h-9.04v-74.82zm-21.71 20.89v53.92h-9.04v-53.92zm-144.2 0l12.99 20.22h.21l12.83-20.22h10.08l-18.23 26.6 17.97 27.32h-10.03l-12.93-20.53h-.21L821.4 367.6h-10.03l18.39-26.96-18.08-26.96zm-89.87-.93c11.84 0 18.7 7.62 18.7 19.86v35h-9.04v-33.39c0-8.71-4.1-13.48-12.41-13.48-8.52 0-14.08 6.01-14.08 15.14v31.73h-9.04v-53.92h8.52v8.61h.21c3.02-5.82 8.78-9.55 17.14-9.55zm-101.05 28.7a3.85 3.85 0 0 1 .91 1.1l14.01 25.46H604l21.49-26.05c1.34-1.61 3.73-1.84 5.35-.51zm246.55-40.78v13.01h10.49v7.41h-10.49v32.04c0 4.93 2.08 7.16 6.7 7.16a36.13 36.13 0 0 0 3.74-.26v7.57c-1.09.26-3.58.41-5.71.41-9.92 0-13.77-4.04-13.77-14.41v-32.5h-8.05v-7.41h8.05v-13.01h9.04zm188.3 12.08c14.91 0 24.99 10.68 24.99 27.89 0 17.16-10.08 27.89-24.99 27.89-14.96 0-25.04-10.73-25.04-27.89 0-17.21 10.08-27.89 25.04-27.89zM907 292.79v29.92h.21c3.38-6.17 9.66-9.95 17.3-9.95 13.61 0 22.8 10.99 22.8 27.89 0 16.95-9.14 27.89-22.96 27.89-7.9 0-14.08-3.84-17.56-10.06h-.21v9.13h-8.62v-74.82zm-123.11 19.96c14.6 0 23.58 10.58 23.58 26.91v3.42h-38.75v.52c0 10.32 6.08 17.11 15.79 17.11 6.86 0 11.9-3.47 13.4-8.56h8.88c-1.56 9.44-10.7 16.38-22.49 16.38-15.48 0-24.88-10.73-24.88-27.69 0-16.74 9.56-28.09 24.47-28.09z"/></defs><use xlink:href="#A" fill="#050606"/><clipPath id="B"><use xlink:href="#A"/></clipPath><g clip-path="url(#B)"><defs><path id="C" d="M111.81 188.71H5291v19792.43H111.81z"/></defs><use xlink:href="#C" fill="#050606"/><clipPath id="D"><use xlink:href="#C"/></clipPath><path clip-path="url(#D)" d="M589.23 271.43h558.7v100.71h-558.7z" fill="#050606"/></g><defs><path id="E" d="M1234.98 367.66v-55.49h-15.11v55.49zm-7.61-63c4.4 0 7.87-3.52 7.87-7.76 0-4.3-3.47-7.76-7.87-7.76s-7.86 3.47-7.86 7.76c0 4.24 3.46 7.76 7.86 7.76zm-44.34 52.96c-5.12 0-8.54-2.59-8.54-6.73 0-3.93 3.21-6.47 8.85-6.88l11.69-.72v4.04c0 5.99-5.43 10.29-12 10.29zm-4.97 10.92c6.93 0 13.82-3.47 16.92-9.37h.31v8.49h14.59v-38.15c0-11.18-9.26-18.53-23.49-18.53-14.69 0-23.85 7.4-24.42 18.17h13.82c.72-4.09 4.29-6.88 9.93-6.88 5.69 0 9.31 3 9.31 8.18v3.68l-13.97.83c-13.82.83-21.58 6.68-21.58 16.77.01 9.98 8.03 16.81 18.58 16.81z"/></defs><use xlink:href="#E" fill="#050606"/><clipPath id="F"><use xlink:href="#E"/></clipPath><g clip-path="url(#F)"><defs><path id="G" d="M111.81 188.71H5291v19792.43H111.81z"/></defs><use xlink:href="#G" fill="#050606"/><clipPath id="H"><use xlink:href="#G"/></clipPath><path clip-path="url(#H)" d="M1155.89 285.53h82.94v86.6h-82.94z" fill="#050606"/></g></g></svg>