<?xml version="1.0" encoding="UTF-8" standalone="no"?>
<svg
   xmlns:dc="http://purl.org/dc/elements/1.1/"
   xmlns:cc="http://creativecommons.org/ns#"
   xmlns:rdf="http://www.w3.org/1999/02/22-rdf-syntax-ns#"
   xmlns:svg="http://www.w3.org/2000/svg"
   xmlns="http://www.w3.org/2000/svg"
   xml:space="preserve"
   style="enable-background:new 0 0 190 30;"
   viewBox="0 0 190 30"
   y="0px"
   x="0px"
   id="Layer_1"
   version="1.1"><metadata
   id="metadata62"><rdf:RDF><cc:Work
       rdf:about=""><dc:format>image/svg+xml</dc:format><dc:type
         rdf:resource="http://purl.org/dc/dcmitype/StillImage" /><dc:title></dc:title></cc:Work></rdf:RDF></metadata><defs
   id="defs60" />
<style
   id="style2"
   type="text/css">
	.st0{fill:#FFFFFF;}
	.st1{fill:url(#SVGID_1_);}
	.st2{fill:#DF1B12;}
</style>

<g
   id="g55">
	<g
   id="g18">
		<path
   id="path6"
   d="M19.4,5.2H1.1C0.4,5.2,0,6.5,0,7.8s0.4,2.6,1.1,2.6h6.4V25c0,0.7,1.3,1.1,2.7,1.1S13,25.8,13,25V10.5h6.4    c0.8,0,1.1-1.3,1.1-2.6S20.2,5.2,19.4,5.2z" />
		<path
   id="path8"
   d="M21.5,15.6C21.5,9.8,26.3,5,32.4,5c6,0,10.9,4.7,10.9,10.6s-4.8,10.6-10.9,10.6S21.5,21.4,21.5,15.6z M32.4,20.9    c3,0,5.5-2.4,5.5-5.3s-2.4-5.3-5.5-5.3s-5.5,2.4-5.5,5.3S29.3,20.9,32.4,20.9z" />
		<path
   id="path10"
   d="M78.1,14c0-5-4.2-9-9.3-9c-2.6,0-4.9,1-6.6,2.7c-1.7-1.6-4-2.7-6.6-2.7c-5.1,0-9.3,4-9.3,9v11c0,0.7,1.3,1.1,2.7,1.1    c1.3,0,2.7-0.4,2.7-1.1V14c0-2.1,1.7-3.8,3.9-3.8c2.1,0,3.9,1.7,3.9,3.8v11c0,0.7,1.3,1.1,2.7,1.1c1.3,0,2.7-0.4,2.7-1.1V14    c0-2.1,1.7-3.8,3.9-3.8c2.1,0,3.9,1.7,3.9,3.8v11c0,0.7,1.3,1.1,2.7,1.1c1.3,0,2.7-0.4,2.7-1.1V14z" />
		<path
   id="path12"
   d="M157.8,14c0-5-4.2-9-9.3-9c-2.6,0-4.9,1-6.6,2.7c-1.7-1.6-4-2.7-6.6-2.7c-5.1,0-9.3,4-9.3,9v11c0,0.7,1.3,1.1,2.7,1.1    c1.3,0,2.7-0.4,2.7-1.1V14c0-2.1,1.7-3.8,3.9-3.8c2.1,0,3.9,1.7,3.9,3.8v11c0,0.7,1.3,1.1,2.7,1.1s2.7-0.4,2.7-1.1V14    c0-2.1,1.7-3.8,3.9-3.8c2.1,0,3.9,1.7,3.9,3.8v11c0,0.7,1.3,1.1,2.7,1.1c1.3,0,2.7-0.4,2.7-1.1L157.8,14L157.8,14z" />
		<path
   id="path14"
   d="M99.2,5.2H80.9c-0.8,0-1.1,1.3-1.1,2.6s0.4,2.6,1.1,2.6h6.4V25c0,0.7,1.3,1.1,2.7,1.1c1.3,0,2.7-0.4,2.7-1.1V10.5h6.4    c0.8,0,1.1-1.3,1.1-2.6C100.3,6.5,99.9,5.2,99.2,5.2z" />
		<path
   id="path16"
   d="M101.3,15.6c0-5.8,4.8-10.6,10.9-10.6c6,0,10.9,4.7,10.9,10.6s-4.8,10.6-10.9,10.6C106.1,26.2,101.3,21.4,101.3,15.6z     M112.1,20.9c3,0,5.5-2.4,5.5-5.3s-2.4-5.3-5.5-5.3c-3,0-5.5,2.4-5.5,5.3C106.7,18.6,109.1,20.9,112.1,20.9z" />
	</g>
	<g
   id="g53">
		
			<radialGradient
   gradientUnits="userSpaceOnUse"
   gradientTransform="matrix(0.2138 0.9781 1.0042 -0.2083 291.6898 -545.5136)"
   r="27.0325"
   cy="-221.5247"
   cx="520.6262"
   id="SVGID_1_">
			<stop
   id="stop20"
   style="stop-color:#FFFFFF"
   offset="4.000000e-02" />
			<stop
   id="stop22"
   style="stop-color:#FDFDFD;stop-opacity:0.7392"
   offset="0.3977" />
			<stop
   id="stop24"
   style="stop-color:#F6F6F6;stop-opacity:0.6452"
   offset="0.5266" />
			<stop
   id="stop26"
   style="stop-color:#EBEBEB;stop-opacity:0.5782"
   offset="0.6185" />
			<stop
   id="stop28"
   style="stop-color:#DADADA;stop-opacity:0.524"
   offset="0.6928" />
			<stop
   id="stop30"
   style="stop-color:#C4C4C4;stop-opacity:0.4776"
   offset="0.7564" />
			<stop
   id="stop32"
   style="stop-color:#A8A8A8;stop-opacity:0.4365"
   offset="0.8128" />
			<stop
   id="stop34"
   style="stop-color:#888888;stop-opacity:0.3993"
   offset="0.8638" />
			<stop
   id="stop36"
   style="stop-color:#626262;stop-opacity:0.3652"
   offset="0.9106" />
			<stop
   id="stop38"
   style="stop-color:#373737;stop-opacity:0.3334"
   offset="0.9542" />
			<stop
   id="stop40"
   style="stop-color:#090909;stop-opacity:0.3052"
   offset="0.9929" />
			<stop
   id="stop42"
   style="stop-color:#000000;stop-opacity:0.3"
   offset="1" />
		</radialGradient>
		<path
   id="path45"
   d="M172.8,1.9c-7.4,1.5-12.2,8.7-10.6,15.9c1.6,7.2,8.9,11.8,16.3,10.3c7.4-1.5,12.2-8.7,10.6-15.9    C187.6,5,180.3,0.3,172.8,1.9"
   class="st1" />
		<g
   id="g51">
			<path
   id="path47"
   d="M179.3,20.9c-0.4-0.3-1.1-0.4-1.7,0.1l-0.1,0.1c-0.9,0.8-2.6,2.3-3.8,2c-0.9-0.2-1.1-1.1-1-1.9     c0-0.2,0-0.4,0.1-0.6l0,0l0,0c0-0.1,0-0.3,0.1-0.5c0.1-0.6,1.1-4.9,1.6-7.1c0.1-0.3,0.1-0.7,0.1-1c-0.1-0.5-0.4-0.6-1-0.8     c-0.6-0.1-1.5,0.1-1.7,0.8c-0.3,0.8-0.5,1.9-1.2,5.2c0,0.1-0.1,0.3-0.1,0.5v0c-0.1,0.4-0.2,0.7-0.7,0.6c-0.4-0.1-0.5-0.6-0.5-1     v-0.1l0-0.8c-0.1-1.2-0.1-2.6,0-4l0.1-0.8l0.1-1.4c0-0.4,0-0.6-0.2-0.8c-0.2-0.1-0.5-0.2-0.9-0.1c-0.3,0.1-0.6,0.2-0.8,0.4     c-0.2,0.2-0.3,0.5-0.3,0.8c-0.1,0.7-0.1,1.5-0.1,2.2c-0.1,1.5-0.1,2.9,0,4.4c0,0.1,0,0.2,0,0.3l0,0v0l0,0c0,0.7-0.1,1-0.5,1     c-0.4,0-0.6-0.4-0.7-0.7l0-0.2c-0.2-0.8-0.3-1.7-0.4-2.6l-0.1-0.5c-0.1-0.9-0.3-1.4-0.3-2.2c0-0.1-0.1-0.4-0.3-0.5     c-0.1,0-0.3-0.1-0.6,0.1c-0.8,0.4-0.7,1.3-0.7,1.3c0,0.7,0.1,1.4,0.1,2.1c0.2,1.5,0.4,2.5,0.6,3.7c0,0,0,0.1,0,0.1     c0.1,0.4,0,0.6-0.1,0.7c-0.1,0.1-0.2,0.1-0.4,0c-0.3-0.1-0.5-0.5-0.6-0.8l0,0c-0.4-0.9-0.7-1.9-1-2.9l0-0.1c0,0-0.1-0.2-0.2-0.2     c-0.1,0-0.3,0-0.5,0.3c-0.4,0.4-0.1,1.5,0,2c0.6,3,3.1,7.7,7.7,9.5c3.5,1.4,5.7-0.4,10.1-4.2c0.4-0.3,0.8-0.8,0.9-1.3     c0-0.2,0-0.4-0.2-0.7C179.7,21.2,179.5,21,179.3,20.9z"
   class="st2" />
			<path
   id="path49"
   d="M189.4,10.2c-1.3-3.9-3.7-5.7-4.1-6c-0.1-0.1-0.9-0.7-1.3-0.8c-0.1,0-0.2,0-0.4-0.1h0c-0.1,0-0.1,0-0.2,0     c-0.1,0-0.1,0.1-0.1,0.1c0,0.1,0.2,0.4,0.5,0.7c0.7,0.6,1.6,1.6,1.9,2c0.2,0.3,0.3,0.6,0,0.8c-0.1,0-0.2,0.1-0.4,0     c-0.1,0-0.2-0.1-0.4-0.3c-0.9-0.9-3.2-2.8-4.6-3.7c-0.6-0.4-1.2-0.5-1.7-0.4c0,0-0.3,0.1-0.4,0.3c-0.1,0.2,0.1,0.5,0.1,0.5     c0.6,0.5,3.5,3,4,3.6c0.5,0.5,0.5,0.8,0.3,1c-0.3,0.3-0.7,0-0.8-0.1h0c-0.1-0.1-0.2-0.1-0.3-0.3c-1.4-1.1-4.6-3.1-5.4-3.5     c-0.8-0.4-1.1-0.5-1.9-0.1c0,0-0.5,0.3-0.5,0.6c0,0.3,0.1,0.5,0.4,0.7c3.1,2,3.8,2.4,6.3,4.2c0.2,0.1,0.6,0.5,0.2,0.9     c-0.1,0.1-0.3,0.1-0.5,0.1c-0.3-0.1-0.5-0.2-0.7-0.3c-1.3-0.8-3.7-2-5-2.4c-0.9-0.3-1.4,0-1.7,0.4c-0.3,0.3-0.3,0.7-0.3,1     c0.1,0.3,0.4,0.5,0.6,0.7c1.7,1,3.1,1.6,4.8,2.6c0.5,0.3,0.6,0.4,1.2,0.7c0.6,0.4,1.5,1,1.8,1.7c0,0.1,0.1,0.4,0.1,0.5     c0,0.3-0.1,0.7-0.6,1c-0.8,0.5-2.3,0.4-3.6,0.3c-0.3,0-0.8,0-1.1,0c-0.7,0-1.1,0.2-1.3,0.5c-0.2,0.3-0.2,0.8-0.2,1     c0,0,0,0.1,0,0.3c0,0.1,0.1,0.3,0.1,0.3c0.3,0.4,0.9,0.5,1.6,0.6c1.2,0.1,2.5,0.1,4,0.1c3.5,0.1,7.4-0.1,9-2.2     C190.3,15.8,190.2,12.5,189.4,10.2z"
   class="st2" />
		</g>
	</g>
</g>
</svg>