<?xml version="1.0" encoding="UTF-8" standalone="no"?>
<svg
   xmlns:dc="http://purl.org/dc/elements/1.1/"
   xmlns:cc="http://creativecommons.org/ns#"
   xmlns:rdf="http://www.w3.org/1999/02/22-rdf-syntax-ns#"
   xmlns:svg="http://www.w3.org/2000/svg"
   xmlns="http://www.w3.org/2000/svg"
   version="1.1"
   id="svg2"
   xml:space="preserve"
   width="1133.8586"
   height="1133.8586"
   viewBox="0 0 1133.8586 1133.8586"><metadata
     id="metadata8"><rdf:RDF><cc:Work
         rdf:about=""><dc:format>image/svg+xml</dc:format><dc:type
           rdf:resource="http://purl.org/dc/dcmitype/StillImage" /><dc:title></dc:title></cc:Work></rdf:RDF></metadata><defs
     id="defs6"><clipPath
       clipPathUnits="userSpaceOnUse"
       id="clipPath18"><path
         d="M 0,850.394 H 850.394 V 0 H 0 Z"
         id="path16" /></clipPath><clipPath
       clipPathUnits="userSpaceOnUse"
       id="clipPath34"><path
         d="m 403.721,785.034 c -17.58,0 -35.077,-2.437 -51.979,-8.107 v 0 c -25.518,-8.562 -47.678,-24.712 -69.384,-40.624 v 0 c -27.389,-20.077 -49.442,-48.216 -72.725,-72.81 v 0 c -9.653,-10.198 -19.314,-20.402 -29.534,-30.032 v 0 C 152.428,607.392 124.286,579.096 104.318,545.9 v 0 C 65.398,481.198 73.41,397.557 92.115,327.645 v 0 c 10.515,-39.3 25.316,-84.702 51.825,-116.326 v 0 c 21.396,-25.525 48.933,-39.002 80.008,-49.854 v 0 c 25.85,-9.027 52.973,-17.253 75.326,-33.634 v 0 c 21.476,-15.736 35.049,-38.907 58.078,-53.794 v 0 C 401.783,45.311 456.898,41.244 505.894,60.426 v 0 c 45.137,17.672 93.31,44.959 131.716,74.505 v 0 c 37.317,28.708 68.82,64.94 91.928,105.967 v 0 c 30.057,53.369 41.657,111.532 43.869,171.217 v 0 c 0.72,19.414 0.447,38.988 -0.507,58.611 v 0 c -2.25,46.283 -2.71,92.816 -38.123,126.502 v 0 c -25.337,24.1 -60.63,37.175 -87.847,59.264 v 0 c -12.228,9.926 -20.218,21.785 -29.605,34.172 v 0 c -27.473,36.256 -81.45,60.596 -122.884,76.111 v 0 c -28.655,10.731 -59.814,18.259 -90.714,18.259 v 0 c -0.002,0 -0.004,0 -0.006,0"
         id="path32" /></clipPath><clipPath
       clipPathUnits="userSpaceOnUse"
       id="clipPath42"><path
         d="M 330.188,723.313 H 724.165 V 172.182 H 330.188 Z"
         id="path40" /></clipPath><clipPath
       clipPathUnits="userSpaceOnUse"
       id="clipPath46"><path
         d="M 348.799,700.143 H 688.688 V 211.024 H 348.799 Z"
         id="path44" /></clipPath><clipPath
       clipPathUnits="userSpaceOnUse"
       id="clipPath50"><path
         d="M 366.865,652.918 H 653.302 V 246.914 H 366.865 Z"
         id="path48" /></clipPath><clipPath
       clipPathUnits="userSpaceOnUse"
       id="clipPath54"><path
         d="M 382.932,600.828 H 618.073 V 282.098 H 382.932 Z"
         id="path52" /></clipPath><clipPath
       clipPathUnits="userSpaceOnUse"
       id="clipPath58"><path
         d="M 397.945,555.413 H 583.223 V 315.51 H 397.945 Z"
         id="path56" /></clipPath><clipPath
       clipPathUnits="userSpaceOnUse"
       id="clipPath62"><path
         d="M 412.285,519.984 H 548.499 V 348.218 H 412.285 Z"
         id="path60" /></clipPath><clipPath
       clipPathUnits="userSpaceOnUse"
       id="clipPath138"><path
         d="m 371.286,872.131 h 532.85 V 281.04 h -532.85 z"
         id="path136" /></clipPath><clipPath
       clipPathUnits="userSpaceOnUse"
       id="clipPath142"><path
         d="m 405.044,870.014 h 471.9 v -561.13 h -471.9 z"
         id="path140" /></clipPath><clipPath
       clipPathUnits="userSpaceOnUse"
       id="clipPath146"><path
         d="M 439.267,868.338 H 875.592 V 336.349 H 439.267 Z"
         id="path144" /></clipPath><clipPath
       clipPathUnits="userSpaceOnUse"
       id="clipPath150"><path
         d="M 473.52,866.662 H 874.366 V 363.368 H 473.52 Z"
         id="path148" /></clipPath><clipPath
       clipPathUnits="userSpaceOnUse"
       id="clipPath154"><path
         d="M 507.71,864.73 H 873.325 V 389.709 H 507.71 Z"
         id="path152" /></clipPath><clipPath
       clipPathUnits="userSpaceOnUse"
       id="clipPath158"><path
         d="M 541.87,862.941 H 872.503 V 415.046 H 541.87 Z"
         id="path156" /></clipPath><clipPath
       clipPathUnits="userSpaceOnUse"
       id="clipPath162"><path
         d="M 576.013,861.374 H 871.88 V 438.731 H 576.013 Z"
         id="path160" /></clipPath><clipPath
       clipPathUnits="userSpaceOnUse"
       id="clipPath166"><path
         d="M 610.144,860.055 H 871.397 V 459.29 H 610.144 Z"
         id="path164" /></clipPath><clipPath
       clipPathUnits="userSpaceOnUse"
       id="clipPath282"><path
         d="M 98.2742,724.147 H 359.232 V 201.868 H 98.2742 Z"
         id="path280" /></clipPath><clipPath
       clipPathUnits="userSpaceOnUse"
       id="clipPath286"><path
         d="M 98.2742,724.147 H 359.232 V 201.868 H 98.2742 Z"
         id="path284" /></clipPath><clipPath
       clipPathUnits="userSpaceOnUse"
       id="clipPath290"><path
         d="M 113.465,674.039 H 330.948 V 222.723 H 113.465 Z"
         id="path288" /></clipPath><clipPath
       clipPathUnits="userSpaceOnUse"
       id="clipPath294"><path
         d="M 128.453,618.354 H 303.197 V 243.552 H 128.453 Z"
         id="path292" /></clipPath><clipPath
       clipPathUnits="userSpaceOnUse"
       id="clipPath298"><path
         d="M 143.148,565.675 H 279.601 V 264.319 H 143.148 Z"
         id="path296" /></clipPath><clipPath
       clipPathUnits="userSpaceOnUse"
       id="clipPath302"><path
         d="m 157.366,533.807 h 97.999 V 284.933 h -97.999 z"
         id="path300" /></clipPath><clipPath
       clipPathUnits="userSpaceOnUse"
       id="clipPath374"><path
         d="M 298.021,279.117 H 628.224 V -42.8199 H 298.021 Z"
         id="path372" /></clipPath><clipPath
       clipPathUnits="userSpaceOnUse"
       id="clipPath378"><path
         d="M 298.021,279.117 H 628.224 V -42.8199 H 298.021 Z"
         id="path376" /></clipPath><clipPath
       clipPathUnits="userSpaceOnUse"
       id="clipPath382"><path
         d="M 326.756,230.575 H 607.505 V -40.5095 H 326.756 Z"
         id="path380" /></clipPath><clipPath
       clipPathUnits="userSpaceOnUse"
       id="clipPath386"><path
         d="m 355.628,181.988 h 231.1 V -38.4735 h -231.1 z"
         id="path384" /></clipPath><clipPath
       clipPathUnits="userSpaceOnUse"
       id="clipPath390"><path
         d="M 384.737,133.122 H 566.241 V -36.8828 H 384.737 Z"
         id="path388" /></clipPath><clipPath
       clipPathUnits="userSpaceOnUse"
       id="clipPath394"><path
         d="M 414.194,83.1918 H 546.052 V -35.9954 H 414.194 Z"
         id="path392" /></clipPath><clipPath
       clipPathUnits="userSpaceOnUse"
       id="clipPath466"><path
         d="m 180.024,495.17 h 60.668 V 332.479 h -60.668 z"
         id="path464" /></clipPath><clipPath
       clipPathUnits="userSpaceOnUse"
       id="clipPath486"><path
         d="M 86.7956,892.265 H 349.219 V 717.187 H 86.7956 Z"
         id="path484" /></clipPath><clipPath
       clipPathUnits="userSpaceOnUse"
       id="clipPath490"><path
         d="M 86.7956,889.859 H 349.219 V 717.187 H 86.7956 Z"
         id="path488" /></clipPath><clipPath
       clipPathUnits="userSpaceOnUse"
       id="clipPath494"><path
         d="M 98.1141,889.851 H 315.496 V 745.237 H 98.1141 Z"
         id="path492" /></clipPath><clipPath
       clipPathUnits="userSpaceOnUse"
       id="clipPath498"><path
         d="M 109.571,889.844 H 281.774 V 782.659 H 109.571 Z"
         id="path496" /></clipPath><clipPath
       clipPathUnits="userSpaceOnUse"
       id="clipPath546"><path
         d="M -39.5522,743.429 H 133.393 V 454.195 H -39.5522 Z"
         id="path544" /></clipPath><clipPath
       clipPathUnits="userSpaceOnUse"
       id="clipPath550"><path
         d="M -24.9517,743.429 H 133.393 V 454.195 H -24.9517 Z"
         id="path548" /></clipPath><clipPath
       clipPathUnits="userSpaceOnUse"
       id="clipPath554"><path
         d="M -23.0328,711.352 H 114.689 V 480.012 H -23.0328 Z"
         id="path552" /></clipPath><clipPath
       clipPathUnits="userSpaceOnUse"
       id="clipPath558"><path
         d="M -20.7325,679.33 H 95.9958 V 505.831 H -20.7325 Z"
         id="path556" /></clipPath><clipPath
       clipPathUnits="userSpaceOnUse"
       id="clipPath562"><path
         d="M -6.13008,648.469 H 77.3506 V 531.65 H -6.13008 Z"
         id="path560" /></clipPath><clipPath
       clipPathUnits="userSpaceOnUse"
       id="clipPath622"><path
         d="M 155.671,751.092 H 262.69 V 616.876 H 155.671 Z"
         id="path620" /></clipPath><clipPath
       clipPathUnits="userSpaceOnUse"
       id="clipPath638"><path
         d="M 669.482,225.217 H 851.356 V 53.7059 H 669.482 Z"
         id="path636" /></clipPath><clipPath
       clipPathUnits="userSpaceOnUse"
       id="clipPath642"><path
         d="M 669.482,225.217 H 851.356 V 53.7059 H 669.482 Z"
         id="path640" /></clipPath><clipPath
       clipPathUnits="userSpaceOnUse"
       id="clipPath646"><path
         d="M 695.642,209.96 H 828.665 V 88.116 H 695.642 Z"
         id="path644" /></clipPath><clipPath
       clipPathUnits="userSpaceOnUse"
       id="clipPath650"><path
         d="m 721.763,194.752 h 84.201 v -72.333 h -84.201 z"
         id="path648" /></clipPath><clipPath
       clipPathUnits="userSpaceOnUse"
       id="clipPath654"><path
         d="m 746.552,179.906 h 36.703 v -23.428 h -36.703 z"
         id="path652" /></clipPath><clipPath
       clipPathUnits="userSpaceOnUse"
       id="clipPath714"><path
         d="M -74.5307,422.185 H 197.728 V -31.7046 H -74.5307 Z"
         id="path712" /></clipPath><clipPath
       clipPathUnits="userSpaceOnUse"
       id="clipPath718"><path
         d="M -47.7386,422.185 H 197.728 V -17.6921 H -47.7386 Z"
         id="path716" /></clipPath><clipPath
       clipPathUnits="userSpaceOnUse"
       id="clipPath722"><path
         d="M -47.7386,399.836 H 170.982 V -17.693 H -47.7386 Z"
         id="path720" /></clipPath><clipPath
       clipPathUnits="userSpaceOnUse"
       id="clipPath726"><path
         d="M -47.7386,377.508 H 144.218 V -17.7041 H -47.7386 Z"
         id="path724" /></clipPath><clipPath
       clipPathUnits="userSpaceOnUse"
       id="clipPath730"><path
         d="M -47.7415,355.205 H 117.481 V -17.7018 H -47.7415 Z"
         id="path728" /></clipPath><clipPath
       clipPathUnits="userSpaceOnUse"
       id="clipPath734"><path
         d="M -46.9188,332.948 H 90.7335 V -17.6988 H -46.9188 Z"
         id="path732" /></clipPath><clipPath
       clipPathUnits="userSpaceOnUse"
       id="clipPath806"><path
         d="M 81.8075,369.848 H 147.363 V 249.101 H 81.8075 Z"
         id="path804" /></clipPath><clipPath
       clipPathUnits="userSpaceOnUse"
       id="clipPath822"><path
         d="M 102.764,162.117 H 344.743 V -20.8309 H 102.764 Z"
         id="path820" /></clipPath><clipPath
       clipPathUnits="userSpaceOnUse"
       id="clipPath826"><path
         d="M 102.764,162.117 H 344.743 V -20.8309 H 102.764 Z"
         id="path824" /></clipPath><clipPath
       clipPathUnits="userSpaceOnUse"
       id="clipPath830"><path
         d="M 120.494,135.3 H 323.24 V -20.4372 H 120.494 Z"
         id="path828" /></clipPath><clipPath
       clipPathUnits="userSpaceOnUse"
       id="clipPath834"><path
         d="M 135.825,103.895 H 303.03 V -20.0887 H 135.825 Z"
         id="path832" /></clipPath><clipPath
       clipPathUnits="userSpaceOnUse"
       id="clipPath838"><path
         d="M 152.464,72.4871 H 282.876 V -19.7503 H 152.464 Z"
         id="path836" /></clipPath><clipPath
       clipPathUnits="userSpaceOnUse"
       id="clipPath842"><path
         d="m 170.618,41.093 h 92.28 v -60.4938 h -92.28 z"
         id="path840" /></clipPath><clipPath
       clipPathUnits="userSpaceOnUse"
       id="clipPath914"><path
         d="M 641.208,268.945 H 874.155 V 15.2764 H 641.208 Z"
         id="path912" /></clipPath></defs><g
     id="g10"
     transform="matrix(1.3333333,0,0,-1.3333333,0,1133.8587)"><rect
       style="fill:#91cec6;fill-opacity:1;fill-rule:evenodd;stroke-width:0.825054"
       id="rect2463"
       width="856.78082"
       height="854.80505"
       x="-5.5511151e-17"
       y="-850.39404"
       transform="scale(1,-1)" /><g
       id="g36"><g
         id="g38" /><g
         id="g130"><g
           clip-path="url(#clipPath42)"
           id="g128"><g
             transform="translate(659.5293,448.4313)"
             id="g66"><path
               d="m 0,0 c -79.472,-38.604 -89.64,-95.247 -102.958,-146.374 -3.762,-14.442 -9.049,-28.507 -16.029,-41.709 -17.071,-32.282 -44.388,-58.489 -78.146,-72.737 -34.744,-14.664 -81.263,-27.027 -109.76,6.216 -33.004,38.502 -0.249,85.788 12.726,125.218 9.463,28.759 18.353,63.711 2.951,92.078 -22.973,42.312 -36.466,89.044 -37.555,137.274 -0.963,42.682 8.148,85.593 17.834,126.973 2.363,10.099 5.02,20.436 11.105,28.836 10.412,14.373 29.762,20.56 47.334,18.069 17.572,-2.491 33.362,-12.568 45.834,-25.195 14.736,-14.92 27.562,-34.035 37.979,-52.124 47.29,-82.118 99.516,-49.111 182.54,-68.197 C 90.143,110.791 74.874,36.371 0,0 Z"
               style="fill:none;stroke:#38675d;stroke-width:1;stroke-linecap:butt;stroke-linejoin:miter;stroke-miterlimit:10;stroke-dasharray:none;stroke-opacity:1"
               id="path64" /></g><g
             id="g78"><g
               id="g68" /><g
               id="g76"><g
                 clip-path="url(#clipPath46)"
                 opacity="0.300003"
                 id="g74"><g
                   transform="translate(380.8765,214.1925)"
                   id="g72"><path
                     d="m 0,0 c -74.714,14.201 38.736,131.285 3.472,197.821 -47.51,89.092 -40.591,169.01 -15.354,251.416 25.238,82.407 78.739,6.321 120.145,-51.705 44.825,-62.816 87.053,-38.309 155.656,-54.307 64.259,-15.108 53.438,-78.039 -8.071,-109.569 -63.51,-32.554 -74.55,-81.149 -87.882,-126.454 C 143.457,23.909 70.544,-13.407 0,0 Z"
                     style="fill:none;stroke:#478579;stroke-width:1;stroke-linecap:butt;stroke-linejoin:miter;stroke-miterlimit:10;stroke-dasharray:none;stroke-opacity:1"
                     id="path70" /></g></g></g></g><g
             id="g90"><g
               id="g80" /><g
               id="g88"><g
                 clip-path="url(#clipPath50)"
                 opacity="0.399994"
                 id="g86"><g
                   transform="translate(401.0415,248.4347)"
                   id="g84"><path
                     d="m 0,0 c -67.153,8.431 28.894,107.229 -0.658,164.473 -22.331,43.256 -34.913,90.801 -32.786,139.658 1.113,25.568 2.821,53.419 13.83,76.926 4.929,10.525 12.691,20.968 24.988,22.681 18.696,2.605 31.562,-16.141 42.331,-28.608 12.94,-14.98 25.016,-30.734 38.689,-45.071 41.362,-43.375 74.617,-27.394 128.773,-40.418 52.255,-12.569 45.906,-64.064 -2.289,-90.81 C 165.319,172.437 153.505,131.796 140.074,92.297 117.201,25.038 58.46,-7.339 0,0 Z"
                     style="fill:none;stroke:#478579;stroke-width:1;stroke-linecap:butt;stroke-linejoin:miter;stroke-miterlimit:10;stroke-dasharray:none;stroke-opacity:1"
                     id="path82" /></g></g></g></g><g
             id="g102"><g
               id="g92" /><g
               id="g100"><g
                 clip-path="url(#clipPath54)"
                 opacity="0.600006"
                 id="g98"><g
                   transform="translate(421.2065,282.6769)"
                   id="g96"><path
                     d="m 0,0 c -59.804,2.288 18.939,83.109 -4.787,131.118 -15.135,30.629 -27.154,63.215 -30.886,97.355 -2.597,23.754 -7.676,76.344 20.623,87.181 15.248,5.84 29.517,-1.918 39.148,-13.05 12.347,-14.27 24.685,-29.32 40.426,-40.02 35.964,-24.443 62.164,-16.557 101.89,-26.528 40.237,-10.1 38.461,-49.958 3.494,-72.05 C 138.257,144.009 125.872,111.08 112.18,77.392 91.333,26.102 46.199,-1.768 0,0 Z"
                     style="fill:none;stroke:#478579;stroke-width:1;stroke-linecap:butt;stroke-linejoin:miter;stroke-miterlimit:10;stroke-dasharray:none;stroke-opacity:1"
                     id="path94" /></g></g></g></g><g
             id="g114"><g
               id="g104" /><g
               id="g112"><g
                 clip-path="url(#clipPath58)"
                 opacity="0.800003"
                 id="g110"><g
                   transform="translate(441.3711,316.9191)"
                   id="g108"><path
                     d="m 0,0 c -51.918,-9.586 8.926,58.958 -8.915,97.768 -11.046,24.026 -22.731,48.129 -28.698,74.037 -4.055,17.606 -14.005,61.102 11.758,65.773 13.566,2.46 23.349,-6.404 31.389,-15.56 10.125,-11.53 21.96,-22.685 37.12,-26.907 28.107,-7.829 49.702,-5.764 75.007,-12.639 28.213,-7.666 31.128,-35.458 9.277,-53.291 C 111.008,116.178 98.561,90.269 84.286,62.486 66.043,26.979 33.408,6.168 0,0 Z"
                     style="fill:none;stroke:#478579;stroke-width:1;stroke-linecap:butt;stroke-linejoin:miter;stroke-miterlimit:10;stroke-dasharray:none;stroke-opacity:1"
                     id="path106" /></g></g></g></g><g
             id="g126"><g
               id="g116" /><g
               id="g124"><g
                 clip-path="url(#clipPath62)"
                 opacity="0.800003"
                 id="g122"><g
                   transform="translate(545.5049,445.5172)"
                   id="g120"><path
                     d="m 0,0 c -3.246,-8.557 -39.198,-80.458 -83.969,-94.357 -44.769,-13.897 -1.254,34.737 -13.044,64.414 -7.915,19.922 -20.44,37.64 -28.521,57.497 -4.184,10.28 -14.713,41.608 1.746,46.089 11.808,3.214 18.346,-18.412 24.479,-25.864 9.228,-11.214 21.331,-17.986 36.125,-14.498 C -10.72,45.65 10.166,26.795 0,0 Z"
                     style="fill:none;stroke:#478579;stroke-width:1;stroke-linecap:butt;stroke-linejoin:miter;stroke-miterlimit:10;stroke-dasharray:none;stroke-opacity:1"
                     id="path118" /></g></g></g></g></g></g></g><g
       id="g132"><g
         id="g134" /><g
         id="g258"><g
           clip-path="url(#clipPath138)"
           id="g256"><g
             transform="translate(871.3701,579.2394)"
             id="g170"><path
               d="m 0,0 c 1.724,38.432 4.854,76.778 6.473,115.212 -3.976,9.052 -7.171,18.676 -9.367,28.989 -12.6,59.181 -20.573,100.117 -22.181,133.921 -20.446,0.214 -40.94,-0.338 -61.268,-0.486 -99.911,-0.728 -200.047,2.863 -299.776,8.657 -37.447,2.176 -75.53,3.276 -113.423,6.057 0.611,-8.068 1.519,-15.808 2.77,-23.246 3.308,-19.662 11.133,-35.944 17.852,-54.337 5.471,-14.977 5.139,-30.677 16.135,-43.48 11.089,-12.911 28.134,-17.898 42.014,-26.955 14.014,-9.144 28.925,-17.992 38.976,-31.738 11.928,-16.314 16.898,-36.441 28.413,-53.163 26.46,-38.425 78.885,-38.397 121.182,-43.179 49.178,-5.561 79.428,-12.397 96.242,-26.792 16.815,-14.396 14.407,-38.88 5.288,-73.799 -16.205,-62.053 -55.051,-123.792 -34.125,-166.138 21.914,-44.346 84.702,-76.688 162.56,-5.661 -0.723,45.943 -1.135,91.888 -0.756,137.836 C -2.667,-78.855 -1.768,-39.41 0,0 Z"
               style="fill:none;stroke:#478579;stroke-width:1;stroke-linecap:butt;stroke-linejoin:miter;stroke-miterlimit:10;stroke-dasharray:none;stroke-opacity:1"
               id="path168" /></g><g
             id="g182"><g
               id="g172" /><g
               id="g180"><g
                 clip-path="url(#clipPath142)"
                 opacity="0.300003"
                 id="g178"><g
                   transform="translate(871.3701,579.2394)"
                   id="g176"><path
                     d="m 0,0 c 1.302,29.039 3.411,58.029 5.065,87.045 -9.151,14.314 -16.425,30.232 -20.624,48.328 -15.06,64.912 -23.939,106.934 -24.99,142.784 -15.298,-0.074 -30.593,-0.41 -45.794,-0.521 -99.911,-0.728 -200.047,2.863 -299.776,8.657 -26.345,1.531 -53.005,2.529 -79.692,3.953 0.351,-12.158 1.328,-24.312 3.865,-37.363 7.975,-46.302 31.333,-80.202 77.596,-114.818 44.969,-33.929 43.253,-65.242 62.887,-83.723 19.664,-18.493 60.68,-24.154 104.786,-29.966 43.981,-5.745 71.551,-12.672 87.229,-26.242 15.54,-13.437 14.167,-35.618 6.881,-66.987 -0.656,-2.822 -1.341,-5.651 -2.085,-8.478 -14.237,-53.733 -42.548,-106.23 -24.974,-143.573 20.874,-44.357 76.983,-76.525 147.079,-14.432 -0.522,39.01 -0.766,78.021 -0.444,117.034 C -2.667,-78.855 -1.768,-39.41 0,0 Z"
                     style="fill:none;stroke:#478579;stroke-width:1;stroke-linecap:butt;stroke-linejoin:miter;stroke-miterlimit:10;stroke-dasharray:none;stroke-opacity:1"
                     id="path174" /></g></g></g></g><g
             id="g194"><g
               id="g184" /><g
               id="g192"><g
                 clip-path="url(#clipPath146)"
                 opacity="0.399994"
                 id="g190"><g
                   transform="translate(871.3701,579.2394)"
                   id="g188"><path
                     d="m 0,0 c 0.964,21.508 2.372,42.989 3.711,64.474 -14.099,17.523 -25.749,37.785 -31.935,62.069 -17.85,70.072 -27.725,112.596 -29.277,151.449 -9.636,-0.127 -19.258,-0.286 -28.842,-0.356 -99.911,-0.728 -200.047,2.863 -299.776,8.657 -15.071,0.876 -30.247,1.577 -45.471,2.282 -0.105,-15.935 0.332,-32.235 4.469,-51.913 7.356,-41.515 29.654,-71.954 71.872,-102.744 39.628,-29.416 40.639,-56.566 59.467,-73.038 18.887,-16.497 55.594,-22.316 94.628,-28.38 38.783,-5.929 63.675,-12.948 78.216,-25.693 14.265,-12.477 13.944,-32.367 8.473,-60.176 -0.503,-2.553 -1.012,-5.121 -1.591,-7.688 -11.126,-48.579 -33.73,-95.865 -18.401,-130.275 19.819,-44.488 69.288,-76.541 131.67,-23.301 -0.341,32.109 -0.469,64.219 -0.204,96.331 C -2.667,-78.855 -1.768,-39.41 0,0 Z"
                     style="fill:none;stroke:#478579;stroke-width:1;stroke-linecap:butt;stroke-linejoin:miter;stroke-miterlimit:10;stroke-dasharray:none;stroke-opacity:1"
                     id="path186" /></g></g></g></g><g
             id="g206"><g
               id="g196" /><g
               id="g204"><g
                 clip-path="url(#clipPath150)"
                 opacity="0.600006"
                 id="g202"><g
                   transform="translate(871.3701,579.2394)"
                   id="g200"><path
                     d="m 0,0 c 0.67,14.942 1.556,29.872 2.483,44.798 -2.711,2.82 -5.382,5.754 -8.004,8.822 -15.214,17.695 -28.179,38.631 -35.368,64.095 -20.254,71.739 -31.424,114.302 -36.781,156.143 -0.151,1.288 -0.262,2.574 -0.353,3.859 -2.776,-0.032 -5.55,-0.061 -8.32,-0.081 -99.911,-0.728 -200.047,2.863 -299.776,8.657 -3.635,0.212 -7.277,0.41 -10.924,0.603 -0.456,-19.442 -1.238,-39.353 4.748,-66.456 6.736,-36.727 27.974,-63.706 66.147,-90.669 34.287,-24.902 38.024,-47.891 56.046,-62.353 18.111,-14.501 50.508,-20.477 84.471,-26.793 33.585,-6.114 55.798,-13.225 69.202,-25.145 12.991,-11.517 13.749,-29.132 10.066,-53.363 -0.348,-2.287 -0.676,-4.593 -1.096,-6.899 -7.909,-43.445 -24.984,-85.539 -11.829,-116.978 18.738,-44.782 61.614,-76.709 116.321,-32.273 -0.186,25.243 -0.232,50.487 -0.024,75.731 C -2.667,-78.855 -1.768,-39.41 0,0 Z"
                     style="fill:none;stroke:#478579;stroke-width:1;stroke-linecap:butt;stroke-linejoin:miter;stroke-miterlimit:10;stroke-dasharray:none;stroke-opacity:1"
                     id="path198" /></g></g></g></g><g
             id="g218"><g
               id="g208" /><g
               id="g216"><g
                 clip-path="url(#clipPath154)"
                 opacity="0.800003"
                 id="g214"><g
                   transform="translate(850.8047,628.9357)"
                   id="g212"><path
                     d="m 0,0 c -13.747,16.32 -25.587,35.818 -32.988,59.19 -19.401,61.257 -31.924,102.057 -44.225,140.787 -2.825,9.232 -3.749,18.365 -3.809,27.893 -86.925,-0.256 -173.994,2.672 -260.794,7.397 -0.441,-22.782 -3.111,-45.627 4.912,-80.744 6.117,-31.94 26.295,-55.459 60.422,-78.595 28.945,-20.389 35.41,-39.215 52.627,-51.669 17.334,-12.505 45.421,-18.638 74.312,-25.206 28.389,-6.299 47.922,-13.501 60.189,-24.595 11.717,-10.559 13.595,-25.916 11.659,-46.552 -0.19,-2.023 -0.346,-4.064 -0.601,-6.11 -4.784,-38.286 -16.313,-75.25 -5.258,-103.68 17.622,-45.314 53.956,-77.186 101.03,-41.514 -0.071,18.466 -0.054,36.933 0.098,55.4 0.324,39.447 1.224,78.892 2.991,118.302 0.412,9.164 0.91,18.323 1.442,27.48 C 14.487,-15.692 7.089,-8.479 0,0 Z"
                     style="fill:none;stroke:#478579;stroke-width:1;stroke-linecap:butt;stroke-linejoin:miter;stroke-miterlimit:10;stroke-dasharray:none;stroke-opacity:1"
                     id="path210" /></g></g></g></g><g
             id="g230"><g
               id="g220" /><g
               id="g228"><g
                 clip-path="url(#clipPath158)"
                 opacity="0.800003"
                 id="g226"><g
                   transform="translate(835.7598,625.0118)"
                   id="g224"><path
                     d="m 0,0 c -12.279,14.946 -22.931,33.021 -30.609,54.285 -18.353,50.825 -32.422,89.812 -51.668,125.431 -8.585,16.233 -10.697,32.275 -12.622,49.689 -0.089,0.808 -0.168,1.616 -0.242,2.424 -65.682,0.331 -131.421,2.384 -197.037,5.575 0.171,-26.234 -5.117,-51.361 5.145,-95.178 5.496,-27.152 24.614,-47.211 54.696,-66.521 23.605,-15.876 32.797,-30.539 49.207,-40.984 16.557,-10.509 40.335,-16.8 64.155,-23.62 23.191,-6.483 40.046,-13.778 51.176,-24.046 10.442,-9.599 13.505,-22.716 13.251,-39.741 -0.026,-1.759 -0.016,-3.533 -0.106,-5.319 -1.678,-33.124 -7.724,-64.993 1.314,-90.383 16.457,-46.231 46.343,-78.17 85.828,-51.193 0.002,11.835 0.033,23.671 0.131,35.507 0.324,39.447 1.224,78.892 2.991,118.302 0.188,4.194 0.402,8.387 0.62,12.579 C 23.838,-24.146 11.629,-14.262 0,0 Z"
                     style="fill:none;stroke:#478579;stroke-width:1;stroke-linecap:butt;stroke-linejoin:miter;stroke-miterlimit:10;stroke-dasharray:none;stroke-opacity:1"
                     id="path222" /></g></g></g></g><g
             id="g242"><g
               id="g232" /><g
               id="g240"><g
                 clip-path="url(#clipPath162)"
                 opacity="0.699997"
                 id="g238"><g
                   transform="translate(820.7139,621.0885)"
                   id="g236"><path
                     d="m 0,0 c -10.811,13.571 -20.169,30.264 -28.229,49.379 -17.069,40.484 -32.919,77.567 -59.112,110.076 -11.74,14.723 -18.011,29.254 -22.683,43.727 -3.211,9.943 -4.021,21.015 -3.162,32.875 -43.209,0.589 -86.428,1.879 -129.609,3.706 0.028,-0.528 0.057,-1.056 0.079,-1.583 1.237,-29.34 -6.912,-56.016 5.554,-108.252 4.877,-22.365 22.935,-38.963 48.972,-54.447 18.262,-11.363 30.182,-21.863 45.786,-30.299 15.781,-8.513 35.25,-14.962 53.998,-22.033 17.993,-6.668 32.17,-14.054 42.163,-23.498 9.167,-8.639 13.518,-19.519 14.843,-32.928 0.147,-1.496 0.312,-3.003 0.388,-4.53 1.398,-27.96 0.78,-54.762 7.887,-77.085 15.229,-47.83 38.813,-80.102 70.712,-61.739 0.023,5.493 0.032,10.986 0.078,16.48 0.324,39.435 1.223,78.869 2.989,118.267 C 32.706,-29.865 16.165,-20.402 0,0 Z"
                     style="fill:none;stroke:#478579;stroke-width:1;stroke-linecap:butt;stroke-linejoin:miter;stroke-miterlimit:10;stroke-dasharray:none;stroke-opacity:1"
                     id="path234" /></g></g></g></g><g
             id="g254"><g
               id="g244" /><g
               id="g252"><g
                 clip-path="url(#clipPath166)"
                 opacity="0.800003"
                 id="g250"><g
                   transform="translate(805.6689,617.1652)"
                   id="g248"><path
                     d="m 0,0 c -26.141,34.126 -40.838,93.445 -92.405,139.193 -43.345,38.453 -49.633,69.377 -40.48,101.405 -20.324,0.448 -40.647,1.049 -60.965,1.772 0.331,-2.769 0.555,-5.495 0.689,-8.198 1.509,-30.638 -8.178,-58.544 5.87,-116.542 14.048,-57.997 166.812,-67.672 179.921,-135.239 16.127,-83.13 36.745,-151.975 70.087,-137.939 0.297,35.394 1.063,70.787 2.501,106.154 -0.368,0.268 -0.724,0.536 -1.099,0.802 C 38.194,-30.189 19.648,-25.651 0,0 Z"
                     style="fill:none;stroke:#478579;stroke-width:1;stroke-linecap:butt;stroke-linejoin:miter;stroke-miterlimit:10;stroke-dasharray:none;stroke-opacity:1"
                     id="path246" /></g></g></g></g></g></g></g><g
       id="g260"
       transform="translate(138.0532,-11.8094)"><path
         d="m 0,0 c -5.053,53.203 1.947,108.203 34.947,153.203 8,10 16,19 27,27 16,11 33,18 52,21 19,3 38,1 56,-6 19,-8 33,-21 50,-33 18,-12 38,-18 59,-15 16,2 31,7 46,15 33,20 61,44 82,77 24,40 31,83 45,126 9,25 20,48 42,65 2,1 5,3 7,5 13,8 26,17 41,15 16,-1 19,-21 14,-34 -13,-30 -23.98494,-66.33963 -6.98494,-97.33963 14.06014,-35.54544 73.46837,-49.10646 103.98494,-44.66037 29,4 52,21 73.75,38.5"
         style="fill:none;stroke:#38675d;stroke-width:1;stroke-linecap:butt;stroke-linejoin:miter;stroke-miterlimit:10;stroke-dasharray:none;stroke-opacity:1"
         id="path262" /></g><g
       id="g264"
       transform="translate(647.0791,251.1125)"><path
         d="m 0,0 c -2.75,21.569 -6.787,44.443 -30.092,52.653 -9.585,3.376 -14.376,6.853 -16.942,17.677 -1.796,7.573 -0.839,15.56 1.146,23.085 6.756,25.599 20.563,47.332 45.94,57.907 3.004,1.252 6.174,2.304 9.435,2.253 9.198,-0.147 12.669,-9.622 12.917,-17.673 0.198,-6.433 -1.411,-12.763 -2.65,-19.079 C 16.391,99.688 15.717,82.033 17.723,64.688 19.723,47.396 22.57,31.806 15.573,14.99 13.609,10.271 1.642,-12.885 0,0 Z"
         style="fill:none;stroke:#41be9f;stroke-width:0.5;stroke-linecap:butt;stroke-linejoin:miter;stroke-miterlimit:10;stroke-dasharray:none;stroke-opacity:1"
         id="path266" /></g><g
       id="g268"
       transform="translate(737.7402,694.546)"><path
         d="M 0,0 C -30.75,42.04 -49.92,44.807 -69.64,92.915 -89.359,141.024 -127.771,90.267 -101.16,52.764 -74.549,15.26 14.256,-19.489 0,0 Z"
         style="fill:none;stroke:#51c4af;stroke-width:1;stroke-linecap:butt;stroke-linejoin:miter;stroke-miterlimit:10;stroke-dasharray:none;stroke-opacity:1"
         id="path270" /></g><g
       id="g272"
       transform="translate(466.2695,392.8586)"><path
         d="m 0,0 c 3.846,-38.707 55.489,34.851 49.73,54.011 -3.741,12.446 -16.236,3.594 -24.345,2.036 -13.198,-2.536 -25.389,9.528 -36.505,15.574 -1.183,0.643 -2.451,1.274 -3.796,1.214 -2.551,-0.111 -4.392,-2.775 -4.493,-5.326 -0.102,-2.551 1.075,-4.962 2.284,-7.211 C -12.094,50.943 -4.728,43.54 -2.727,32.964 -0.674,22.109 -1.089,10.959 0,0 Z"
         style="fill:none;stroke:#41be9f;stroke-width:0.5;stroke-linecap:butt;stroke-linejoin:miter;stroke-miterlimit:10;stroke-dasharray:none;stroke-opacity:1"
         id="path274" /></g><g
       id="g276"><g
         id="g278" /><g
         id="g366"><g
           clip-path="url(#clipPath282)"
           id="g364"><g
             id="g314"><g
               id="g304" /><g
               id="g312"><g
                 clip-path="url(#clipPath286)"
                 opacity="0.300003"
                 id="g310"><g
                   transform="translate(314.9722,233.8107)"
                   id="g308"><path
                     d="m 0,0 c -10.839,40.538 24.745,71.523 38.163,106.304 2.178,5.645 4.154,11.885 5.155,17.833 1.396,8.307 -0.806,18.201 -2.554,26.341 -3.877,18.053 -11.047,35.173 -17.832,52.276 -9.015,22.725 -17.598,45.398 -23.423,69.04 -9.13,37.053 -2.801,81.372 5.437,118.093 6.341,28.266 22.479,72.377 -6.182,94.316 -19.913,15.243 -34.6,-3.785 -47.628,-17.642 -14.853,-15.797 -27.989,-33.087 -41.382,-50.107 -22.369,-28.427 -60.318,-69.986 -88.727,-120.374 -28.409,-50.388 -47.279,-109.605 -31.488,-173.348 15.79,-63.743 73.522,-113.56 124.748,-137.875 C -34.488,-39.457 10.232,-38.269 0,0 Z"
                     style="fill:none;stroke:#478579;stroke-width:1;stroke-linecap:butt;stroke-linejoin:miter;stroke-miterlimit:10;stroke-dasharray:none;stroke-opacity:1"
                     id="path306" /></g></g></g></g><g
             id="g326"><g
               id="g316" /><g
               id="g324"><g
                 clip-path="url(#clipPath290)"
                 opacity="0.300003"
                 id="g322"><g
                   transform="translate(294.998,252.1134)"
                   id="g320"><path
                     d="m 0,0 c -12.698,57.144 44.432,75.235 34.221,141.512 -6.657,43.211 -24.591,68.74 -34.836,113.525 -5.426,23.721 -7.79,48.07 -5.959,72.368 2.029,26.929 11.163,52.858 7.262,80.167 -0.501,3.51 -1.279,7.169 -3.605,9.844 -3.086,3.549 -8.329,4.565 -12.959,3.739 -12.466,-2.225 -23.276,-12.736 -31.292,-21.836 -8.818,-10.009 -17.268,-20.341 -25.594,-30.76 -18.52,-23.179 -49.304,-57.187 -74.161,-98.552 -26.183,-43.57 -41.852,-94.897 -30.202,-150.01 7.234,-34.222 26.199,-65.083 49.147,-89.977 18.58,-20.155 39.458,-36.447 58.94,-46.004 C -27.938,-36.147 7.563,-34.04 0,0 Z"
                     style="fill:none;stroke:#478579;stroke-width:1;stroke-linecap:butt;stroke-linejoin:miter;stroke-miterlimit:10;stroke-dasharray:none;stroke-opacity:1"
                     id="path318" /></g></g></g></g><g
             id="g338"><g
               id="g328" /><g
               id="g336"><g
                 clip-path="url(#clipPath294)"
                 opacity="0.399994"
                 id="g334"><g
                   transform="translate(275.0239,270.4152)"
                   id="g332"><path
                     d="m 0,0 c -8.882,53.055 31.508,72.109 27.375,123.075 -2.882,35.547 -13.098,59.065 -22.685,102.96 -3.61,16.533 -6.824,33.222 -8.346,50.093 -1.528,16.937 1.624,33.249 0.832,50.074 -0.214,4.531 -0.989,9.21 -3.543,12.959 -15.366,22.552 -39.384,-6.867 -48.91,-18.497 -14.682,-17.925 -38.394,-44.342 -59.596,-76.728 -24.041,-36.722 -36.679,-80.271 -28.916,-126.673 5.421,-32.395 20.962,-62.594 39.931,-87.175 C -87.487,8.874 -69.097,-8.233 -52.361,-16.825 -21.352,-32.747 4.985,-29.776 0,0 Z"
                     style="fill:none;stroke:#478579;stroke-width:1;stroke-linecap:butt;stroke-linejoin:miter;stroke-miterlimit:10;stroke-dasharray:none;stroke-opacity:1"
                     id="path330" /></g></g></g></g><g
             id="g350"><g
               id="g340" /><g
               id="g348"><g
                 clip-path="url(#clipPath298)"
                 opacity="0.600006"
                 id="g346"><g
                   transform="translate(255.0498,288.7179)"
                   id="g344"><path
                     d="m 0,0 c -2.762,27.848 6.292,50.892 14.874,76.657 4.563,13.7 7.516,27.945 8.76,42.331 1.215,14.057 -0.354,25.849 -3.054,39.631 -0.466,2.381 -0.933,4.762 -1.399,7.143 -3.177,16.218 -7.086,31.843 -9.271,48.216 -2.169,16.25 -2.566,61.277 -27.278,62.455 -18.058,0.86 -36.062,-21.555 -46.294,-34.04 -6.577,-8.025 -12.986,-16.188 -19.161,-24.529 -22.052,-29.789 -31.821,-65.71 -27.629,-103.337 3.41,-30.608 15.572,-60.229 30.712,-84.372 C -65.705,7.776 -49.65,-9.986 -35.685,-17.668 -14.7,-29.21 2.528,-25.488 0,0 Z"
                     style="fill:none;stroke:#478579;stroke-width:1;stroke-linecap:butt;stroke-linejoin:miter;stroke-miterlimit:10;stroke-dasharray:none;stroke-opacity:1"
                     id="path342" /></g></g></g></g><g
             id="g362"><g
               id="g352" /><g
               id="g360"><g
                 clip-path="url(#clipPath302)"
                 opacity="0.800003"
                 id="g358"><g
                   transform="translate(235.0757,307.0207)"
                   id="g356"><path
                     d="m 0,0 c -0.494,44.967 7.6,65.946 13.683,86.198 2.21,7.359 4.148,14.8 5.255,22.412 2.411,16.559 -1.029,31.852 -1.419,48.263 -0.245,10.235 -0.896,20.021 -2.949,30.219 -2.983,14.815 -11.292,47.288 -33.022,37.329 -13.198,-6.049 -22.923,-22.219 -32.321,-32.629 -20.389,-22.582 -27.352,-51.16 -26.342,-80 1.01,-28.839 9.992,-57.94 21.494,-81.569 C -44.119,6.595 -30.097,-11.562 -19.009,-18.51 -7.921,-25.458 0.233,-21.2 0,0 Z"
                     style="fill:none;stroke:#478579;stroke-width:1;stroke-linecap:butt;stroke-linejoin:miter;stroke-miterlimit:10;stroke-dasharray:none;stroke-opacity:1"
                     id="path354" /></g></g></g></g></g></g></g><g
       id="g368"><g
         id="g370" /><g
         id="g458"><g
           clip-path="url(#clipPath374)"
           id="g456"><g
             id="g406"><g
               id="g396" /><g
               id="g404"><g
                 clip-path="url(#clipPath378)"
                 opacity="0.300003"
                 id="g402"><g
                   transform="translate(522.4121,-35.2957)"
                   id="g400"><path
                     d="m 0,0 c 19.887,-2.172 39.752,-4.525 59.605,-6.983 7.423,16.168 13.269,32.945 17.92,49.77 15.414,55.754 17.838,111.98 22.039,147.907 16.211,138.615 0.463,168.869 -77.373,46.507 C -50.367,123.137 -94.968644,133.65103 -164.15864,87.559032 -194.3213,53.767833 -198.24625,41.552489 -204.33725,13.012489 -129.59425,10.396489 -74.38,8.123 0,0 Z"
                     style="fill:none;stroke:#478579;stroke-width:1;stroke-linecap:butt;stroke-linejoin:miter;stroke-miterlimit:10;stroke-dasharray:none;stroke-opacity:1"
                     id="path398" /></g></g></g></g><g
             id="g418"><g
               id="g408" /><g
               id="g416"><g
                 clip-path="url(#clipPath382)"
                 opacity="0.399994"
                 id="g414"><g
                   transform="translate(522.4121,-35.2957)"
                   id="g412"><path
                     d="M 0,0 C 13.564,-1.481 27.118,-3.052 40.665,-4.675 45.771,5.677 50.197,16.294 54.044,26.979 70.869,73.727 76.494,122.188 80.016,156.73 93.144,280.601 80.837,303.793 6.087,199.053 -58.56,108.472 -100.952,121.466 -155.547,82.526 -184.695,61.736 -189.446,36.891 -195.026,14.031 -129.891,11.325 -64.841,7.081 0,0 Z"
                     style="fill:none;stroke:#478579;stroke-width:1;stroke-linecap:butt;stroke-linejoin:miter;stroke-miterlimit:10;stroke-dasharray:none;stroke-opacity:1"
                     id="path410" /></g></g></g></g><g
             id="g430"><g
               id="g420" /><g
               id="g428"><g
                 clip-path="url(#clipPath386)"
                 opacity="0.600006"
                 id="g426"><g
                   transform="translate(522.4121,-35.2957)"
                   id="g424"><path
                     d="m 0,0 c 7.804,-0.853 15.604,-1.74 23.402,-2.643 2.529,4.555 4.913,9.167 7.16,13.815 18.237,37.74 26.958,78.445 29.904,111.595 9.701,109.157 1.791,125.12 -70.485,38.138 C -66.03,93.495 -96.645,95.373 -136.635,63.509 -156.199,47.921 -161.084,29.888 -166.125,12.721 -110.65,10.002 -55.249,6.033 0,0 Z"
                     style="fill:none;stroke:#478579;stroke-width:1;stroke-linecap:butt;stroke-linejoin:miter;stroke-miterlimit:10;stroke-dasharray:none;stroke-opacity:1"
                     id="path422" /></g></g></g></g><g
             id="g442"><g
               id="g432" /><g
               id="g440"><g
                 clip-path="url(#clipPath390)"
                 opacity="0.800003"
                 id="g438"><g
                   transform="translate(522.4121,-35.2957)"
                   id="g436"><path
                     d="m 0,0 c 3.149,-0.344 6.297,-0.703 9.445,-1.056 18.23,27.874 29.312,59.399 31.471,89.859 6.693,94.402 3.835,102.528 -67.039,33.955 C -72.516,77.87 -92.406,69.465 -117.722,44.491 -128.259,34.097 -132.604,22.617 -136.964,11.168 -91.235,8.542 -45.566,4.976 0,0 Z"
                     style="fill:none;stroke:#478579;stroke-width:1;stroke-linecap:butt;stroke-linejoin:miter;stroke-miterlimit:10;stroke-dasharray:none;stroke-opacity:1"
                     id="path434" /></g></g></g></g><g
             id="g454"><g
               id="g444" /><g
               id="g452"><g
                 clip-path="url(#clipPath394)"
                 opacity="0.800003"
                 id="g450"><g
                   transform="translate(522.4121,-35.2957)"
                   id="g448"><path
                     d="m 0,0 c 0.509,-0.056 1.018,-0.115 1.526,-0.171 11.365,15.842 18.827,34.201 19.841,55.01 3.881,79.639 7.844,77.335 -63.595,29.77 C -77.946,60.828 -88.834,44.118 -98.81,25.475 -101.573,20.311 -104.268,14.996 -107.399,9.344 -71.55,6.945 -35.743,3.903 0,0 Z"
                     style="fill:none;stroke:#478579;stroke-width:1;stroke-linecap:butt;stroke-linejoin:miter;stroke-miterlimit:10;stroke-dasharray:none;stroke-opacity:1"
                     id="path446" /></g></g></g></g></g></g></g><g
       id="g460"><g
         id="g462" /><g
         id="g474"><g
           clip-path="url(#clipPath466)"
           opacity="0.800003"
           id="g472"><g
             transform="translate(196.2588,351.5734)"
             id="g470"><path
               d="m 0,0 c 2.688,-7.388 6.315,-14.608 12.509,-17.66 1.871,-0.922 4.194,-1.384 5.993,-0.329 4.375,2.564 6.154,10.746 7.538,15.166 1.839,5.879 3.147,11.912 4.304,17.958 1.819,9.507 5.395,18.379 7.913,27.765 3.708,13.826 6.398,28.116 5.504,42.489 -0.75,12.053 -3.999,23.775 -8.057,35.096 -2.683,7.482 -5.496,24.534 -16.436,22.433 -7.676,-1.474 -15.153,-9.845 -19.569,-15.901 -5.52,-7.571 -8.945,-16.502 -11.289,-25.515 -4.212,-16.19 -5.23,-33.206 -2.979,-49.783 1.78,-13.11 5.573,-25.844 10.086,-38.248 C -3.088,9.635 -1.741,4.782 0,0 Z"
               style="fill:none;stroke:#478579;stroke-width:1;stroke-linecap:butt;stroke-linejoin:miter;stroke-miterlimit:10;stroke-dasharray:none;stroke-opacity:1"
               id="path468" /></g></g></g></g><g
       id="g476"
       transform="translate(346.7637,853.2799)"><path
         d="m 0,0 c -4.049,6.897 -7.067,14.033 -9.235,21.376 -28.45,3.061 -56.647,7.566 -84.24,14.696 -51.951,-2.916 -104.027,-6.789 -156.289,-11.958 -10.371,-1.112 -20.681,-2.023 -30.946,-2.732 7.342,-39.552 -1.49,-85.712 -41.09,-136.863 -20.216,-26.112 -37.074,-50.732 -50.939,-73.801 0.386,-10.216 0.886,-20.426 1.545,-30.623 1.507,-23.354 3.354,-46.687 4.612,-70.057 2.331,-43.308 3.207,-87.56 -4.827,-130.382 9.488,-1.716 19.858,-1.634 30.827,0.325 113.982,20.354 120.382,140.977 136.191,215.715 37.42,176.894 145.31,121.651 185.544,88.909 C 21.388,-148.137 45.821,-78.041 0,0 Z"
         style="fill:none;stroke:#478579;stroke-width:1;stroke-linecap:butt;stroke-linejoin:miter;stroke-miterlimit:10;stroke-dasharray:none;stroke-opacity:1"
         id="path478" /></g><g
       id="g480"><g
         id="g482" /><g
         id="g538"><g
           clip-path="url(#clipPath486)"
           id="g536"><g
             id="g510"><g
               id="g500" /><g
               id="g508"><g
                 clip-path="url(#clipPath490)"
                 id="g506"><g
                   transform="translate(304.5967,878.9337)"
                   id="g504"><path
                     d="M 0,0 C -17.281,2.668 -34.416,6.052 -51.323,10.422 -103.269,7.503 -155.34,3.628 -207.597,-1.54 c -3.208,-0.344 -6.408,-0.662 -9.605,-0.967 18.072,-90.534 15.771,-198.043 58.403,-144.374 72.448,91.203 113.014,71.638 149.234,58.178 36.194,-13.452 80.919,-32.483 32.436,44.141 C 12.773,-28.603 5.311,-13.792 0,0 Z"
                     style="fill:none;stroke:#478579;stroke-width:1;stroke-linecap:butt;stroke-linejoin:miter;stroke-miterlimit:10;stroke-dasharray:none;stroke-opacity:1"
                     id="path502" /></g></g></g></g><g
             id="g522"><g
               id="g512" /><g
               id="g520"><g
                 clip-path="url(#clipPath494)"
                 opacity="0.399994"
                 id="g518"><g
                   transform="translate(283.8418,882.5011)"
                   id="g516"><path
                     d="M 0,0 C -10.25,1.963 -20.432,4.236 -30.537,6.846 -81.93,3.96 -133.445,0.14 -185.141,-4.946 c 13.43,-75.877 9.326,-163.233 43.184,-120.609 58.845,74.078 99.182,68.513 129.093,58.993 C 16.792,-76 52.756,-90.878 14.725,-28.484 8.623,-18.472 3.778,-8.995 0,0 Z"
                     style="fill:none;stroke:#478579;stroke-width:1;stroke-linecap:butt;stroke-linejoin:miter;stroke-miterlimit:10;stroke-dasharray:none;stroke-opacity:1"
                     id="path514" /></g></g></g></g><g
             id="g534"><g
               id="g524" /><g
               id="g532"><g
                 clip-path="url(#clipPath498)"
                 opacity="0.600006"
                 id="g530"><g
                   transform="translate(262.7764,887.0094)"
                   id="g528"><path
                     d="m 0,0 c -3.156,0.745 -6.305,1.52 -9.445,2.332 -47.605,-2.676 -95.315,-6.157 -143.176,-10.698 10.142,-59.029 10.961,-118.353 36.153,-86.638 45.241,56.952 76.929,55.23 100.615,49.643 C 7.2,-50.798 34.472,-61.496 6.89,-13.348 4.263,-8.762 1.991,-4.322 0,0 Z"
                     style="fill:none;stroke:#478579;stroke-width:1;stroke-linecap:butt;stroke-linejoin:miter;stroke-miterlimit:10;stroke-dasharray:none;stroke-opacity:1"
                     id="path526" /></g></g></g></g></g></g></g><g
       id="g540"><g
         id="g542" /><g
         id="g614"><g
           clip-path="url(#clipPath546)"
           id="g612"><g
             id="g574"><g
               id="g564" /><g
               id="g572"><g
                 clip-path="url(#clipPath550)"
                 opacity="0.300003"
                 id="g570"><g
                   transform="translate(106.4731,694.4865)"
                   id="g568"><path
                     d="m 0,0 c -29.393,-15.29 -14.867,59.369 -35.178,47.067 -38.914,-23.568 -71.603,-63.37 -94.076,-104.843 -0.562,-1.038 -1.114,-2.077 -1.663,-3.117 0.005,-0.072 0.008,-0.146 0.013,-0.218 1.508,-23.355 3.355,-46.687 4.612,-70.058 1.826,-33.925 2.755,-68.429 -0.787,-102.372 14.987,-8.269 33.808,-9.166 54.542,2.386 28.81,16.05 49.846,53.119 64.936,92.201 15.091,39.083 24.236,80.18 29.268,104.287 C 31.729,13.546 26.411,13.739 0,0 Z"
                     style="fill:none;stroke:#478579;stroke-width:1;stroke-linecap:butt;stroke-linejoin:miter;stroke-miterlimit:10;stroke-dasharray:none;stroke-opacity:1"
                     id="path566" /></g></g></g></g><g
             id="g586"><g
               id="g576" /><g
               id="g584"><g
                 clip-path="url(#clipPath554)"
                 opacity="0.399994"
                 id="g582"><g
                   transform="translate(94.8687,671.7775)"
                   id="g580"><path
                     d="M 0,0 C -21.708,-10.354 -10.288,46.146 -25.684,38.33 -30.607,35.83 -36.549,32.663 -42.577,28.302 -54.336,19.795 -65.598,9.005 -76.02,-2.789 c -11.871,-13.433 -22.566,-28.28 -31.155,-43.44 -3.78,-6.67 -7.19,-13.404 -10.219,-20.1 0.98,-14.039 1.951,-28.078 2.707,-42.131 1.279,-23.775 2.117,-47.834 1.288,-71.785 13.261,-11.734 31.954,-15.692 53.061,-3.933 22.912,12.764 39.767,41.905 51.971,72.812 7.33,18.595 12.974,37.822 17.239,54.474 2.736,10.759 4.908,20.405 6.548,28.06 C 23.375,8.286 19.606,9.352 0,0 Z"
                     style="fill:none;stroke:#478579;stroke-width:1;stroke-linecap:butt;stroke-linejoin:miter;stroke-miterlimit:10;stroke-dasharray:none;stroke-opacity:1"
                     id="path578" /></g></g></g></g><g
             id="g598"><g
               id="g588" /><g
               id="g596"><g
                 clip-path="url(#clipPath558)"
                 opacity="0.600006"
                 id="g594"><g
                   transform="translate(83.2642,649.0685)"
                   id="g592"><path
                     d="m 0,0 c -14.03,-5.431 -5.783,32.6 -16.189,29.592 -3.013,-0.871 -8.043,-2.443 -13.611,-6.001 -9.527,-6.088 -19.192,-14.628 -28.356,-24.062 -10.177,-10.477 -19.656,-22.194 -26.94,-34.209 -9.07,-14.963 -15.351,-30.418 -18.398,-44.141 0.136,-2.31 0.287,-4.619 0.411,-6.93 0.546,-10.131 1.011,-20.314 1.302,-30.519 8.204,-20.719 28.779,-34.782 53.641,-20.931 17.015,9.478 29.689,30.691 39.007,53.422 5.543,13.579 9.909,27.676 13.233,40.095 2.094,7.826 3.782,14.92 5.073,20.687 C 15.001,3.029 12.795,4.953 0,0 Z"
                     style="fill:none;stroke:#478579;stroke-width:1;stroke-linecap:butt;stroke-linejoin:miter;stroke-miterlimit:10;stroke-dasharray:none;stroke-opacity:1"
                     id="path590" /></g></g></g></g><g
             id="g610"><g
               id="g600" /><g
               id="g608"><g
                 clip-path="url(#clipPath562)"
                 opacity="0.800003"
                 id="g606"><g
                   transform="translate(35.7183,536.1349)"
                   id="g604"><path
                     d="m 0,0 c 11.117,6.193 19.611,19.477 26.042,34.033 3.756,8.561 6.823,17.534 9.226,25.716 1.439,4.896 2.652,9.434 3.601,13.314 3.652,14.941 3.03,17.174 -2.928,17.162 -6.438,-0.014 -2.113,21.547 -6.694,20.854 -1.201,1.497 -5.178,0.731 -10.328,-1.974 C 11.713,105.321 3.573,99.131 -4.351,92.071 -12.813,84.532 -21.04,75.943 -27.075,67.092 -36.805,52.824 -41.98,37.752 -41.287,26.993 -39.966,6.518 -22.4,-12.479 0,0 Z"
                     style="fill:none;stroke:#478579;stroke-width:1;stroke-linecap:butt;stroke-linejoin:miter;stroke-miterlimit:10;stroke-dasharray:none;stroke-opacity:1"
                     id="path602" /></g></g></g></g></g></g></g><g
       id="g616"><g
         id="g618" /><g
         id="g630"><g
           clip-path="url(#clipPath622)"
           opacity="0.300003"
           id="g628"><g
             transform="translate(258.7876,721.8575)"
             id="g626"><path
               d="m 0,0 c -25.651,-51.358 -106.599,-132.607 -102.464,-94.744 4.135,37.864 20.273,42.26 31.884,87.209 C -58.968,37.414 20.649,41.343 0,0 Z"
               style="fill:none;stroke:#478579;stroke-width:1;stroke-linecap:butt;stroke-linejoin:miter;stroke-miterlimit:10;stroke-dasharray:none;stroke-opacity:1"
               id="path624" /></g></g></g></g><g
       id="g632"><g
         id="g634" /><g
         id="g706"><g
           clip-path="url(#clipPath638)"
           id="g704"><g
             id="g666"><g
               id="g656" /><g
               id="g664"><g
                 clip-path="url(#clipPath642)"
                 opacity="0.800003"
                 id="g662"><g
                   transform="translate(836.3418,215.215)"
                   id="g660"><path
                     d="m 0,0 c -40.68,-8.926 -59.513,3.39 -95.302,8.483 -19.89,2.831 -42.743,0.221 -57.043,-13.715 -14.299,-13.937 -20.046,-39.199 -5.722,-81.67 10.637,-31.544 15.433,-53.589 24.774,-65.026 9.341,-11.436 23.226,-12.265 52.042,-1.379 28.355,10.713 59.969,51.52 78.844,88.409 C 16.468,-28.01 22.604,4.96 0,0 Z"
                     style="fill:none;stroke:#478579;stroke-width:1;stroke-linecap:butt;stroke-linejoin:miter;stroke-miterlimit:10;stroke-dasharray:none;stroke-opacity:1"
                     id="path658" /></g></g></g></g><g
             id="g678"><g
               id="g668" /><g
               id="g676"><g
                 clip-path="url(#clipPath646)"
                 opacity="0.800003"
                 id="g674"><g
                   transform="translate(759.6289,95.3146)"
                   id="g672"><path
                     d="m 0,0 c 20.468,8.051 43.046,36.173 56.481,61.631 13.437,25.457 17.786,48.035 1.815,45.154 -29.635,-5.346 -44.524,3.578 -70.727,6.798 -14.431,1.799 -30.789,-0.443 -41.139,-10.699 -9.904,-9.812 -14,-27.231 -4.693,-56.335 C -51.298,24.766 -47.996,9.281 -41.839,0.44 -35.137,-9.185 -22.438,-8.825 0,0 Z"
                     style="fill:none;stroke:#478579;stroke-width:1;stroke-linecap:butt;stroke-linejoin:miter;stroke-miterlimit:10;stroke-dasharray:none;stroke-opacity:1"
                     id="path670" /></g></g></g></g><g
             id="g690"><g
               id="g680" /><g
               id="g688"><g
                 clip-path="url(#clipPath650)"
                 opacity="0.800003"
                 id="g686"><g
                   transform="translate(764.167,128.7218)"
                   id="g684"><path
                     d="m 0,0 c 12.598,5.337 26.123,20.826 34.12,34.853 7.997,14.026 10.532,26.26 1.222,25.409 -18.644,-1.705 -29.538,3.729 -46.153,5.113 -8.975,0.747 -18.839,-1.101 -25.236,-7.683 -5.517,-5.675 -7.964,-15.271 -3.663,-31.001 3.289,-12.028 4.988,-21.077 8.074,-27.19 C -27.633,-8.431 -16.052,-6.801 0,0 Z"
                     style="fill:none;stroke:#478579;stroke-width:1;stroke-linecap:butt;stroke-linejoin:miter;stroke-miterlimit:10;stroke-dasharray:none;stroke-opacity:1"
                     id="path682" /></g></g></g></g><g
             id="g702"><g
               id="g692" /><g
               id="g700"><g
                 clip-path="url(#clipPath654)"
                 opacity="0.800003"
                 id="g698"><g
                   transform="translate(781.0918,175.8683)"
                   id="g696"><path
                     d="m 0,0 c -7.677,2.559 -14.546,3.956 -21.577,3.427 -3.516,-0.264 -6.96,-1.692 -9.333,-4.665 -1.188,-1.487 -2.107,-3.36 -2.633,-5.667 -0.526,-2.307 -0.66,-5.049 -0.276,-8.273 0.767,-6.448 11.853,-3.53 21.431,1.438 4.79,2.483 9.202,5.48 11.76,8.075 C 1.929,-3.07 2.631,-0.877 0,0 Z"
                     style="fill:none;stroke:#478579;stroke-width:1;stroke-linecap:butt;stroke-linejoin:miter;stroke-miterlimit:10;stroke-dasharray:none;stroke-opacity:1"
                     id="path694" /></g></g></g></g></g></g></g><g
       id="g708"><g
         id="g710" /><g
         id="g798"><g
           clip-path="url(#clipPath714)"
           id="g796"><g
             id="g746"><g
               id="g736" /><g
               id="g744"><g
                 clip-path="url(#clipPath718)"
                 opacity="0.100006"
                 id="g742"><g
                   transform="translate(195.9971,210.5851)"
                   id="g740"><path
                     d="m 0,0 c -13.223,33.322 -122.108,3.406 -123.575,95.619 -1.353,85.102 3.769,141.565 -91.256,103.251 -4.509,-1.818 -8.811,-3.757 -12.964,-5.767 -1.301,-4.58 -2.592,-9.162 -3.724,-13.792 -3.073,-12.566 -5.533,-25.26 -7.87,-37.981 -1.065,-5.801 -2.381,-11.534 -3.838,-17.23 1.418,-10.123 2.776,-20.255 4.059,-30.397 13.483,-106.617 19.197,-214.048 19.81,-321.475 54.94,0.503 109.886,0.727 164.826,0.297 C -106.488,-90.077 14.599,-36.793 0,0 Z"
                     style="fill:none;stroke:#478579;stroke-width:1;stroke-linecap:butt;stroke-linejoin:miter;stroke-miterlimit:10;stroke-dasharray:none;stroke-opacity:1"
                     id="path738" /></g></g></g></g><g
             id="g758"><g
               id="g748" /><g
               id="g756"><g
                 clip-path="url(#clipPath722)"
                 opacity="0.300003"
                 id="g754"><g
                   transform="translate(169.4482,208.4337)"
                   id="g752"><path
                     d="m 0,0 c -11.43,32.897 -105.717,10.046 -109.621,90.599 -3.636,75.031 -3.8,123.281 -88.483,89.135 -2.779,-1.12 -5.475,-2.281 -8.1,-3.473 -2.512,-10.864 -4.621,-21.812 -6.636,-32.78 -1.065,-5.8 -2.381,-11.535 -3.838,-17.231 1.418,-10.123 2.776,-20.254 4.058,-30.396 13.484,-106.617 19.198,-214.048 19.811,-321.476 50.417,0.463 100.839,0.692 151.258,0.394 C -102.22,-86.405 13.012,-37.448 0,0 Z"
                     style="fill:none;stroke:#478579;stroke-width:1;stroke-linecap:butt;stroke-linejoin:miter;stroke-miterlimit:10;stroke-dasharray:none;stroke-opacity:1"
                     id="path750" /></g></g></g></g><g
             id="g770"><g
               id="g760" /><g
               id="g768"><g
                 clip-path="url(#clipPath726)"
                 opacity="0.399994"
                 id="g766"><g
                   transform="translate(142.8989,206.2834)"
                   id="g764"><path
                     d="m 0,0 c -9.619,32.486 -89.365,16.72 -95.666,85.576 -5.947,65.001 -11.37,104.997 -85.711,75.023 -0.768,-0.31 -1.506,-0.63 -2.26,-0.946 -0.917,-4.667 -1.794,-9.341 -2.654,-14.021 -1.064,-5.801 -2.38,-11.535 -3.837,-17.231 1.418,-10.124 2.775,-20.255 4.058,-30.396 13.484,-106.621 19.197,-214.056 19.81,-321.487 45.732,0.419 91.467,0.655 137.199,0.471 C -99.317,-84.025 11.305,-38.18 0,0 Z"
                     style="fill:none;stroke:#478579;stroke-width:1;stroke-linecap:butt;stroke-linejoin:miter;stroke-miterlimit:10;stroke-dasharray:none;stroke-opacity:1"
                     id="path762" /></g></g></g></g><g
             id="g782"><g
               id="g772" /><g
               id="g780"><g
                 clip-path="url(#clipPath730)"
                 opacity="0.600006"
                 id="g778"><g
                   transform="translate(116.3501,204.133)"
                   id="g776"><path
                     d="m 0,0 c -7.784,32.087 -73.086,23.438 -81.711,80.554 -8.135,53.862 -18.5,85.355 -78.964,62.458 -0.865,-4.175 -1.853,-8.317 -2.908,-12.44 1.419,-10.13 2.778,-20.268 4.062,-30.417 13.484,-106.62 19.197,-214.054 19.81,-321.485 41.367,0.379 82.736,0.607 124.105,0.511 C -92.332,-79.4 9.488,-39.111 0,0 Z"
                     style="fill:none;stroke:#478579;stroke-width:1;stroke-linecap:butt;stroke-linejoin:miter;stroke-miterlimit:10;stroke-dasharray:none;stroke-opacity:1"
                     id="path774" /></g></g></g></g><g
             id="g794"><g
               id="g784" /><g
               id="g792"><g
                 clip-path="url(#clipPath734)"
                 opacity="0.800003"
                 id="g790"><g
                   transform="translate(89.8013,201.9826)"
                   id="g788"><path
                     d="m 0,0 c -5.92,31.698 -56.937,30.212 -67.757,75.531 -9.939,41.627 -24.131,64.663 -68.41,50.988 1.107,-8.066 2.173,-16.137 3.194,-24.213 13.484,-106.619 19.198,-214.053 19.811,-321.483 35.873,0.329 71.748,0.544 107.623,0.531 -1.479,5.523 -3.931,11.694 -7.472,18.581 C -78.455,-72.801 7.183,-38.457 0,0 Z"
                     style="fill:none;stroke:#478579;stroke-width:1;stroke-linecap:butt;stroke-linejoin:miter;stroke-miterlimit:10;stroke-dasharray:none;stroke-opacity:1"
                     id="path786" /></g></g></g></g></g></g></g><g
       id="g800"><g
         id="g802" /><g
         id="g814"><g
           clip-path="url(#clipPath806)"
           opacity="0.100006"
           id="g812"><g
             transform="translate(112.5508,256.1437)"
             id="g810"><path
               d="M 0,0 C 17.061,-7.663 45.879,-11.73 29.389,5.94 18.298,17.825 3.882,31.57 -3.076,45.609 -27.189,94.259 -24.247,142.218 -29.467,91.659 -33.236,55.147 -23.258,10.445 0,0 Z"
               style="fill:none;stroke:#478579;stroke-width:1;stroke-linecap:butt;stroke-linejoin:miter;stroke-miterlimit:10;stroke-dasharray:none;stroke-opacity:1"
               id="path808" /></g></g></g></g><g
       id="g816"><g
         id="g818" /><g
         id="g906"><g
           clip-path="url(#clipPath822)"
           id="g904"><g
             id="g854"><g
               id="g844" /><g
               id="g852"><g
                 clip-path="url(#clipPath826)"
                 opacity="0.300003"
                 id="g850"><g
                   transform="translate(235.3804,-18.3289)"
                   id="g848"><path
                     d="M 0,0 C 22.504,-0.532 45.005,-1.182 67.498,-1.99 72.008,8.717 77.495,20.623 84.056,33.979 165.99,200.76 22.997,199.626 -27.896,152.84 -54.544,128.341 -80.687609,52.42218 -102.30921,-16.944732 -58.362206,-17.062732 -43.937,1.039 0,0 Z"
                     style="fill:none;stroke:#478579;stroke-width:1;stroke-linecap:butt;stroke-linejoin:miter;stroke-miterlimit:10;stroke-dasharray:none;stroke-opacity:1"
                     id="path846" /></g></g></g></g><g
             id="g866"><g
               id="g856" /><g
               id="g864"><g
                 clip-path="url(#clipPath830)"
                 opacity="0.399994"
                 id="g862"><g
                   transform="translate(235.3804,-18.3289)"
                   id="g860"><path
                     d="m 0,0 c 18.758,-0.443 37.513,-0.969 56.264,-1.598 2.75,6.072 5.805,12.525 9.186,19.407 C 139.362,168.26 -4.6025902,169.37638 -39.85159,117.93538 -67.47359,77.672378 -69.1183,42.415 -93.9153,1.439 -55.9113,1.249 -37.996,0.898 0,0 Z"
                     style="fill:none;stroke:#478579;stroke-width:1;stroke-linecap:butt;stroke-linejoin:miter;stroke-miterlimit:10;stroke-dasharray:none;stroke-opacity:1"
                     id="path858" /></g></g></g></g><g
             id="g878"><g
               id="g868" /><g
               id="g876"><g
                 clip-path="url(#clipPath834)"
                 opacity="0.600006"
                 id="g874"><g
                   transform="translate(235.3804,-18.3289)"
                   id="g872"><path
                     d="m 0,0 c 15.147,-0.358 30.292,-0.774 45.434,-1.25 0.463,0.954 0.932,1.916 1.41,2.889 C 112.734,135.76 -0.099,141.718 -31.67,95.965 -53.467,64.449 -68.418396,28.709697 -89.129396,-2.563303 -56.250396,-2.799303 -32.873,0.777 0,0 Z"
                     style="fill:none;stroke:#478579;stroke-width:1;stroke-linecap:butt;stroke-linejoin:miter;stroke-miterlimit:10;stroke-dasharray:none;stroke-opacity:1"
                     id="path870" /></g></g></g></g><g
             id="g890"><g
               id="g880" /><g
               id="g888"><g
                 clip-path="url(#clipPath838)"
                 opacity="0.800003"
                 id="g886"><g
                   transform="translate(235.3804,-18.3289)"
                   id="g884"><path
                     d="M 0,0 C 11.492,-0.271 22.982,-0.574 34.471,-0.911 78.816,103.517 -6.784,105.985 -33.557,67.528 -49.237,45.078 -66.3,23.017 -81.946,1.333 -54.628,1.07 -27.312,0.646 0,0 Z"
                     style="fill:none;stroke:#478579;stroke-width:1;stroke-linecap:butt;stroke-linejoin:miter;stroke-miterlimit:10;stroke-dasharray:none;stroke-opacity:1"
                     id="path882" /></g></g></g></g><g
             id="g902"><g
               id="g892" /><g
               id="g900"><g
                 clip-path="url(#clipPath842)"
                 opacity="0.800003"
                 id="g898"><g
                   transform="translate(235.3804,-18.3289)"
                   id="g896"><path
                     d="M 0,0 C 7.325,-0.174 14.649,-0.363 21.974,-0.562 44.389,70.9 -13.91,69.663 -35.444,39.091 -44.638,26.088 -54.3,13.466 -63.758,1.132 -42.504,0.868 -21.251,0.502 0,0 Z"
                     style="fill:none;stroke:#478579;stroke-width:1;stroke-linecap:butt;stroke-linejoin:miter;stroke-miterlimit:10;stroke-dasharray:none;stroke-opacity:1"
                     id="path894" /></g></g></g></g></g></g></g><g
       id="g908"><g
         id="g910" /><g
         id="g922"><g
           clip-path="url(#clipPath914)"
           opacity="0.300003"
           id="g920"><g
             transform="translate(871.0127,223.9513)"
             id="g918"><path
               d="m 0,0 c -0.302,14.602 -0.599,29.204 -0.887,43.806 -61.11,-61.415 -126.405,-29.305 -154.111,-19.607 -48.746,17.064 -114.713,-40.685 -41.989,-165.083 55.631,-95.159 140.733,-70.596 199.629,-39.675 C 2.457,-120.367 1.241,-60.178 0,0 Z"
               style="fill:none;stroke:#478579;stroke-width:1;stroke-linecap:butt;stroke-linejoin:miter;stroke-miterlimit:10;stroke-dasharray:none;stroke-opacity:1"
               id="path916" /></g></g></g></g><g
       id="g924"
       transform="translate(644.7695,779.0153)"><path
         d="M 0,0 C -3.391,-1.339 -4.011,-13.938 2.761,-22.543 8.558,-29.912 19.075,-33.466 21.394,-30.824 25.588,-26.044 5.801,2.291 0,0 Z"
         style="fill:none;stroke:#51c4af;stroke-width:1;stroke-linecap:round;stroke-linejoin:round;stroke-miterlimit:10;stroke-dasharray:1, 3;stroke-dashoffset:0;stroke-opacity:1"
         id="path926" /></g><g
       id="g928"
       transform="translate(200.4956,440.1872)"><path
         d="m 0,0 c -0.441,-2.068 -0.724,-3.765 -0.851,-4.671 -1.792,-12.725 -0.085,-25.744 4.672,-37.665 0.408,-1.025 0.866,-2.078 1.698,-2.801 0.981,-0.856 2.437,-1.124 3.659,-0.676 3.473,1.273 5.151,7.05 6.203,10.148 1.436,4.228 3.467,8.299 4.476,12.698 1.631,7.109 1.236,14.588 -0.645,21.607 C 17.905,3.52 16.964,12.631 13.06,16.071 6.009,22.283 1.751,8.211 0,0 Z"
         style="fill:none;stroke:#41be9f;stroke-width:0.5;stroke-linecap:butt;stroke-linejoin:miter;stroke-miterlimit:10;stroke-dasharray:none;stroke-opacity:1"
         id="path930" /></g><g
       id="g932"
       transform="translate(625.1855,360.4982)"><path
         d="m 0,0 c -3.578,-7.127 -5.682,-15.412 -6.058,-20.146 -0.328,-4.138 -0.059,-8.448 1.762,-12.177 3.228,-6.608 10.157,-6.336 15.3,-10.548 3.244,-2.657 5.827,-10.565 10.93,-10.165 8.345,0.652 2.135,18.715 1.554,22.283 -1.661,10.198 -0.717,20.594 -0.718,30.867 0,2.812 -0.09,5.709 -1.225,8.282 -1.135,2.574 -3.564,4.77 -6.379,4.801 C 8.772,13.266 3.628,7.229 0,0 Z"
         style="fill:none;stroke:#41be9f;stroke-width:0.5;stroke-linecap:butt;stroke-linejoin:miter;stroke-miterlimit:10;stroke-dasharray:none;stroke-opacity:1"
         id="path934" /></g><g
       id="g936"
       transform="translate(474.6436,425.028)"><path
         d="m 0,0 c 1.507,-3.585 1.836,-6.878 1.644,-10.743 -0.132,-2.653 0.061,-5.595 1.916,-7.497 1.539,-1.577 3.987,-2.062 6.128,-1.538 2.14,0.525 3.981,1.944 5.367,3.66 4.53,5.62 14.499,16.092 11.023,24.255 C 24.397,12.085 18.51,9.885 15.435,9.519 9.24,8.781 5.442,14.803 -0.122,14.27 -2.824,14.01 -5.86,12.11 -4.387,9.123 -2.952,6.214 -1.327,3.157 0,0 Z"
         style="fill:none;stroke:#41be9f;stroke-width:0.5;stroke-linecap:butt;stroke-linejoin:miter;stroke-miterlimit:10;stroke-dasharray:none;stroke-opacity:1"
         id="path938" /></g><rect
       style="fill:#0000ff;fill-rule:evenodd;stroke-width:0.75"
       id="rect2461"
       x="5.4215922"
       y="-840.9303"
       transform="scale(1,-1)"
       height="97.322861" /></g></svg>
