<?xml version="1.0" encoding="UTF-8" standalone="no"?>
<svg
   xmlns:dc="http://purl.org/dc/elements/1.1/"
   xmlns:cc="http://creativecommons.org/ns#"
   xmlns:rdf="http://www.w3.org/1999/02/22-rdf-syntax-ns#"
   xmlns:svg="http://www.w3.org/2000/svg"
   xmlns="http://www.w3.org/2000/svg"
   xmlns:sodipodi="http://sodipodi.sourceforge.net/DTD/sodipodi-0.dtd"
   xmlns:inkscape="http://www.inkscape.org/namespaces/inkscape"
   viewBox="0 0 310 310"
   height="310"
   width="310"
   xml:space="preserve"
   id="svg815"
   version="1.1"
   sodipodi:docname="logo-square.svg"
   inkscape:version="0.92.4 (5da689c313, 2019-01-14)"><sodipodi:namedview
     pagecolor="#ffffff"
     bordercolor="#666666"
     borderopacity="1"
     objecttolerance="10"
     gridtolerance="10"
     guidetolerance="10"
     inkscape:pageopacity="0"
     inkscape:pageshadow="2"
     inkscape:window-width="956"
     inkscape:window-height="1041"
     id="namedview5124"
     showgrid="false"
     inkscape:zoom="2.15011"
     inkscape:cx="214.48942"
     inkscape:cy="179.83871"
     inkscape:window-x="960"
     inkscape:window-y="18"
     inkscape:window-maximized="0"
     inkscape:current-layer="g823"
     fit-margin-top="0"
     fit-margin-left="0"
     fit-margin-right="0"
     fit-margin-bottom="0" /><metadata
     id="metadata821"><rdf:RDF><cc:Work
         rdf:about=""><dc:format>image/svg+xml</dc:format><dc:type
           rdf:resource="http://purl.org/dc/dcmitype/StillImage" /><dc:title /></cc:Work></rdf:RDF></metadata><defs
     id="defs819"><clipPath
       id="clipPath833"
       clipPathUnits="userSpaceOnUse"><path
         id="path831"
         d="M 0,288 H 560.001 V 0 H 0 Z"
         inkscape:connector-curvature="0" /></clipPath></defs><g
     transform="matrix(1.3333333,0,0,-1.3333333,-150.99793,331.09244)"
     id="g823"><rect
   style="fill:#ffb81c;fill-opacity:1;stroke-width:0.71588087"
   id="rect5915"
   width="232.5"
   height="232.5"
   x="113.24845"
   y="-248.31934"
   transform="scale(1,-1)"
   rx="13.666279" /><g
   transform="translate(228.6748,114.1885)"
   id="g835"><path
     id="path837"
     style="fill:none;stroke:#000000;stroke-width:0.62599999;stroke-linecap:butt;stroke-linejoin:miter;stroke-miterlimit:10;stroke-dasharray:none;stroke-opacity:1"
     d="M 0,0 C 1.551,0.053 3.043,0.104 4.458,0.153 L 5.925,2.608 C 3.413,2.48 0.976,2.377 -1.373,2.298 Z"
     inkscape:connector-curvature="0" /></g><g
   transform="translate(182.2495,121.5586)"
   id="g839"><path
     id="path841"
     style="fill:#000000;fill-opacity:1;fill-rule:nonzero;stroke:none"
     d="m 0,0 c -4.711,-9.027 -8.324,-9.115 -8.324,-9.115 l -6.595,5.504 V 0 l -6.597,-2.257 -15.547,-20.31 c -11.936,-7.448 -25.442,-11.961 -25.442,-11.961 12.935,2.705 26.126,9.581 26.126,9.581 l 15.394,20.717 4.765,1.461 -0.113,-2.648 7.695,-6.995 c 4.241,1.353 9.894,9.252 9.894,9.252 1.944,-0.997 13.577,-0.981 26.025,-0.691 l -1.53,2.559 C 9.412,-1.163 0,0 0,0"
     inkscape:connector-curvature="0" /></g><g
   transform="translate(182.2495,121.5586)"
   id="g843"><path
     id="path845"
     style="fill:none;stroke:#000000;stroke-width:2;stroke-linecap:round;stroke-linejoin:round;stroke-miterlimit:11;stroke-dasharray:none;stroke-opacity:1"
     d="m 0,0 c -4.711,-9.027 -8.324,-9.115 -8.324,-9.115 l -6.595,5.504 V 0 l -6.597,-2.257 -15.547,-20.31 c -11.936,-7.448 -25.442,-11.961 -25.442,-11.961 12.935,2.705 26.126,9.581 26.126,9.581 l 15.394,20.717 4.765,1.461 -0.113,-2.648 7.695,-6.995 c 4.241,1.353 9.894,9.252 9.894,9.252 1.944,-0.997 13.577,-0.981 26.025,-0.691 l -1.53,2.559 C 9.412,-1.163 0,0 0,0 Z"
     inkscape:connector-curvature="0" /></g><g
   transform="translate(310.5908,104.2939)"
   id="g847"><path
     id="path849"
     style="fill:#000000;fill-opacity:1;fill-rule:nonzero;stroke:none"
     d="m 0,0 c -5.812,3.272 -9.267,14.782 -9.267,14.782 l -2.041,-1.354 -3.141,-9.479 c 0,0 -2.826,-2.708 -3.298,-2.933 -0.471,-0.226 -7.381,-2.934 -7.381,-2.934 -5.025,6.319 -21.359,5.416 -21.359,5.416 l -1.099,4.651 -9.266,3.473 c -0.301,0.813 -0.703,1.557 -1.138,2.224 -0.561,-0.941 -1.122,-1.88 -1.683,-2.821 0.833,-1.471 1.565,-2.876 1.565,-2.876 L -50.413,5.98 -48.686,0 c 16.333,-1.016 27.956,-7.785 27.956,-7.785 0,0 9.58,6.769 9.108,6.544 -0.471,-0.226 2.199,6.545 2.199,6.545 C -8.48,1.241 -3.455,-4.4 -3.455,-4.4 l 18.531,-8.35 16.49,1.58 C 19.945,-10.493 5.811,-3.271 0,0"
     inkscape:connector-curvature="0" /></g><g
   transform="translate(272.9287,191.3433)"
   id="g851"><path
     id="path853"
     style="fill:#000000;fill-opacity:1;fill-rule:nonzero;stroke:none"
     d="m 0,0 c -3.343,9.309 -9.393,16.794 -17.979,22.246 -7.267,4.613 -15.339,6.953 -23.991,6.953 -0.769,0 -1.545,-0.018 -2.323,-0.055 -5.608,-0.262 -10.77,-1.449 -15.344,-3.529 -14.645,-6.662 -23.533,-17.886 -26.418,-33.36 -1.261,-6.769 -0.99,-13.357 0.794,-19.692 0.268,-0.951 0.579,-1.895 0.915,-2.834 0.985,-2.751 2.251,-5.453 3.821,-8.095 6.887,-11.598 13.809,-23.176 20.731,-34.755 l 0.433,-0.724 1.665,-2.786 1.665,-2.786 4.868,8.431 c -0.886,1.483 -1.465,2.451 -1.465,2.451 -0.067,0.113 -0.133,0.224 -0.2,0.335 -0.555,0.93 -1.108,1.86 -1.663,2.789 -6.251,10.456 -12.502,20.912 -18.723,31.387 -0.734,1.236 -1.38,2.488 -1.955,3.753 -0.428,0.937 -0.811,1.882 -1.151,2.834 -2.072,5.802 -2.541,11.874 -1.375,18.134 2.379,12.765 9.438,21.655 21.578,27.177 3.585,1.63 7.697,2.564 12.22,2.775 0.647,0.031 1.29,0.046 1.927,0.046 7.012,0 13.55,-1.894 19.432,-5.628 6.955,-4.416 11.845,-10.452 14.534,-17.941 4.003,-11.146 2.989,-21.526 -3.099,-31.733 -8.393,-14.069 -16.793,-28.135 -25.193,-42.2 l -5.692,-9.528 c -0.547,0.915 -4.572,7.649 -7.511,12.565 l -4.867,-8.433 2.464,-4.121 c 1.813,-3.036 3.631,-6.069 5.483,-9.16 l 4.403,-7.35 2.445,3.99 c 0,0 0.562,0.91 0.679,1.107 l 9.897,16.57 c 8.401,14.066 16.803,28.132 25.196,42.204 C 3.569,-26.609 4.848,-13.5 0,0"
     inkscape:connector-curvature="0" /></g><g
   transform="translate(272.9287,191.3433)"
   id="g855"><path
     id="path857"
     style="fill:none;stroke:#000000;stroke-width:0.75;stroke-linecap:butt;stroke-linejoin:miter;stroke-miterlimit:10;stroke-dasharray:none;stroke-opacity:1"
     d="m 0,0 c -3.343,9.309 -9.393,16.794 -17.979,22.246 -7.267,4.613 -15.339,6.953 -23.991,6.953 -0.769,0 -1.545,-0.018 -2.323,-0.055 -5.608,-0.262 -10.77,-1.449 -15.344,-3.529 -14.645,-6.662 -23.533,-17.886 -26.418,-33.36 -1.261,-6.769 -0.99,-13.357 0.794,-19.692 0.268,-0.951 0.579,-1.895 0.915,-2.834 0.985,-2.751 2.251,-5.453 3.821,-8.095 6.887,-11.598 13.809,-23.176 20.731,-34.755 l 0.433,-0.724 1.665,-2.786 1.665,-2.786 4.868,8.431 c -0.886,1.483 -1.465,2.451 -1.465,2.451 -0.067,0.113 -0.133,0.224 -0.2,0.335 -0.555,0.93 -1.108,1.86 -1.663,2.789 -6.251,10.456 -12.502,20.912 -18.723,31.387 -0.734,1.236 -1.38,2.488 -1.955,3.753 -0.428,0.937 -0.811,1.882 -1.151,2.834 -2.072,5.802 -2.541,11.874 -1.375,18.134 2.379,12.765 9.438,21.655 21.578,27.177 3.585,1.63 7.697,2.564 12.22,2.775 0.647,0.031 1.29,0.046 1.927,0.046 7.012,0 13.55,-1.894 19.432,-5.628 6.955,-4.416 11.845,-10.452 14.534,-17.941 4.003,-11.146 2.989,-21.526 -3.099,-31.733 -8.393,-14.069 -16.793,-28.135 -25.193,-42.2 l -5.692,-9.528 c -0.547,0.915 -4.572,7.649 -7.511,12.565 l -4.867,-8.433 2.464,-4.121 c 1.813,-3.036 3.631,-6.069 5.483,-9.16 l 4.403,-7.35 2.445,3.99 c 0,0 0.562,0.91 0.679,1.107 l 9.897,16.57 c 8.401,14.066 16.803,28.132 25.196,42.204 C 3.569,-26.609 4.848,-13.5 0,0 Z"
     inkscape:connector-curvature="0" /></g><g
   transform="translate(230.9321,127.1133)"
   id="g859"><path
     id="path861"
     style="fill:#000000;fill-opacity:1;fill-rule:nonzero;stroke:none"
     d="m 0,0 -1.155,1.932 c -0.51,0.851 -1.016,1.705 -1.525,2.556 l -4.869,-8.433 0.43,-0.72 7.122,-11.914 3.9,6.529 c 8.186,13.707 16.372,27.414 24.551,41.125 5.627,9.433 6.564,19.025 2.865,29.323 -2.47,6.881 -6.973,12.435 -13.384,16.506 -5.421,3.441 -11.449,5.186 -17.914,5.186 -0.592,0 -1.191,-0.014 -1.794,-0.042 -4.162,-0.194 -7.922,-1.044 -11.178,-2.524 -11.237,-5.112 -17.769,-13.327 -19.965,-25.116 -1.136,-6.091 -0.588,-11.993 1.614,-17.615 0.373,-0.953 0.795,-1.897 1.264,-2.834 0.387,-0.774 0.8,-1.543 1.253,-2.306 6.502,-10.95 13.037,-21.881 19.572,-32.811 l 4.87,8.434 c -5.313,8.89 -10.625,17.78 -15.916,26.683 -0.404,0.679 -0.811,1.356 -1.215,2.036 -0.157,0.265 -0.285,0.532 -0.432,0.798 -2.825,5.119 -3.708,10.38 -2.65,16.057 1.697,9.108 6.362,14.946 15.126,18.933 2.267,1.031 4.977,1.627 8.052,1.77 0.473,0.022 0.939,0.033 1.399,0.033 4.826,0 9.319,-1.299 13.356,-3.861 4.845,-3.077 8.096,-7.068 9.938,-12.201 C 26.14,49.661 25.451,42.642 21.15,35.432 14.104,23.619 7.052,11.809 0,0"
     inkscape:connector-curvature="0" /></g><g
   transform="translate(230.9321,127.1133)"
   id="g863"><path
     id="path865"
     style="fill:none;stroke:#000000;stroke-width:0.75;stroke-linecap:butt;stroke-linejoin:miter;stroke-miterlimit:10;stroke-dasharray:none;stroke-opacity:1"
     d="m 0,0 -1.155,1.932 c -0.51,0.851 -1.016,1.705 -1.525,2.556 l -4.869,-8.433 0.43,-0.72 7.122,-11.914 3.9,6.529 c 8.186,13.707 16.372,27.414 24.551,41.125 5.627,9.433 6.564,19.025 2.865,29.323 -2.47,6.881 -6.973,12.435 -13.384,16.506 -5.421,3.441 -11.449,5.186 -17.914,5.186 -0.592,0 -1.191,-0.014 -1.794,-0.042 -4.162,-0.194 -7.922,-1.044 -11.178,-2.524 -11.237,-5.112 -17.769,-13.327 -19.965,-25.116 -1.136,-6.091 -0.588,-11.993 1.614,-17.615 0.373,-0.953 0.795,-1.897 1.264,-2.834 0.387,-0.774 0.8,-1.543 1.253,-2.306 6.502,-10.95 13.037,-21.881 19.572,-32.811 l 4.87,8.434 c -5.313,8.89 -10.625,17.78 -15.916,26.683 -0.404,0.679 -0.811,1.356 -1.215,2.036 -0.157,0.265 -0.285,0.532 -0.432,0.798 -2.825,5.119 -3.708,10.38 -2.65,16.057 1.697,9.108 6.362,14.946 15.126,18.933 2.267,1.031 4.977,1.627 8.052,1.77 0.473,0.022 0.939,0.033 1.399,0.033 4.826,0 9.319,-1.299 13.356,-3.861 4.845,-3.077 8.096,-7.068 9.938,-12.201 C 26.14,49.661 25.451,42.642 21.15,35.432 14.104,23.619 7.052,11.809 0,0 Z"
     inkscape:connector-curvature="0" /></g><g
   transform="translate(268.6597,288)"
   id="g871" /><g
   id="text879"
   style="font-variant:normal;font-weight:normal;font-stretch:normal;font-size:12px;font-family:ADAM;-inkscape-font-specification:ADAM;writing-mode:lr-tb;fill:#000000;fill-opacity:1;fill-rule:nonzero;stroke:none"
   transform="matrix(1,0,0,-1,214.5649,176.3809)"
   aria-label="SOTM 2020"><path
     id="path1555"
     style="font-style:normal;font-variant:normal;font-weight:normal;font-stretch:normal;font-family:'ADAM.CG PRO';-inkscape-font-specification:'ADAM.CG PRO'"
     d="M 5.628,-3.036 C 5.496,-3.456 5.232,-3.852 4.848,-4.2 4.656,-4.38 4.392,-4.632 4.176,-4.848 L 2.688,-6.276 C 2.316,-6.636 2.304,-6.912 2.352,-7.08 2.424,-7.332 2.688,-7.536 3,-7.596 3.252,-7.644 3.72,-7.644 4.176,-7.092 L 5.268,-7.968 C 4.92,-8.388 4.512,-8.688 4.056,-8.868 3.624,-9.024 3.168,-9.06 2.736,-8.964 2.34,-8.892 1.968,-8.712 1.668,-8.46 c -0.324,0.276 -0.552,0.612 -0.66,0.996 -0.108,0.36 -0.096,0.756 0.024,1.128 0.12,0.384 0.348,0.744 0.684,1.068 l 1.092,1.032 c 0.048,0.048 0.696,0.684 1.092,1.056 0.252,0.24 0.528,0.6 0.408,1.008 -0.108,0.36 -0.48,0.66 -0.936,0.744 C 3.108,-1.368 2.82,-1.392 2.556,-1.5 2.232,-1.62 1.932,-1.86 1.68,-2.196 l -1.104,0.864 c 0.42,0.54 0.912,0.912 1.476,1.14 C 2.388,-0.06 2.748,0 3.108,0 3.288,0 3.468,-0.012 3.648,-0.048 4.62,-0.24 5.4,-0.924 5.652,-1.788 5.772,-2.196 5.76,-2.628 5.628,-3.036 Z"
     inkscape:connector-curvature="0" /><path
     id="path1557"
     style="font-style:normal;font-variant:normal;font-weight:normal;font-stretch:normal;font-family:'ADAM.CG PRO';-inkscape-font-specification:'ADAM.CG PRO'"
     d="m 11.196,0 c 0.6,0 1.188,-0.12 1.74,-0.348 0.528,-0.228 0.996,-0.552 1.416,-0.96 0.408,-0.408 0.72,-0.876 0.948,-1.416 0.228,-0.54 0.348,-1.128 0.348,-1.728 0,-0.6 -0.12,-1.188 -0.348,-1.74 -0.228,-0.528 -0.54,-0.996 -0.948,-1.416 -0.42,-0.408 -0.888,-0.72 -1.416,-0.948 -0.552,-0.228 -1.14,-0.348 -1.74,-0.348 -0.6,0 -1.188,0.12 -1.7279998,0.348 -0.54,0.228 -1.008,0.54 -1.416,0.948 -0.408,0.42 -0.732,0.888 -0.96,1.416 -0.228,0.552 -0.348,1.14 -0.348,1.74 0,0.6 0.12,1.188 0.348,1.728 0.228,0.54 0.552,1.008 0.96,1.416 0.408,0.408 0.876,0.732 1.416,0.96 C 10.008,-0.12 10.596,0 11.196,0 Z m 0,-7.512 c 0.816,0 1.584,0.324 2.16,0.9 0.576,0.576 0.9,1.344 0.9,2.16 0,0.816 -0.324,1.584 -0.9,2.16 -0.576,0.576 -1.344,0.9 -2.16,0.9 -0.816,0 -1.5839998,-0.324 -2.1599998,-0.9 -0.576,-0.576 -0.9,-1.344 -0.9,-2.16 0,-0.816 0.324,-1.584 0.9,-2.16 0.576,-0.576 1.3439998,-0.9 2.1599998,-0.9 z"
     inkscape:connector-curvature="0" /><path
     id="path1559"
     style="font-style:normal;font-variant:normal;font-weight:normal;font-stretch:normal;font-family:'ADAM.CG PRO';-inkscape-font-specification:'ADAM.CG PRO'"
     d="m 22.188,-8.904 h -6.3 v 1.248 h 2.448 V 0 h 1.404 v -7.656 h 2.448 z"
     inkscape:connector-curvature="0" /><path
     id="path1561"
     style="font-style:normal;font-variant:normal;font-weight:normal;font-stretch:normal;font-family:'ADAM.CG PRO';-inkscape-font-specification:'ADAM.CG PRO'"
     d="m 31.847999,0 v -9.312 l -4.188,6.24 -4.188,-6.24 V 0 h 1.392 v -4.728 l 2.796,4.152 2.784,-4.152 V 0 Z"
     inkscape:connector-curvature="0" /><path
     id="path1563"
     style="font-style:normal;font-variant:normal;font-weight:normal;font-stretch:normal;font-family:'ADAM.CG PRO';-inkscape-font-specification:'ADAM.CG PRO'"
     d="M 4.74,10.332 C 5.82,8.9160001 6.432,8.0880001 7.188,7.0800001 c 0.42,-0.552 0.672,-1.116 0.744,-1.644 0.084,-0.54 -0.012,-1.044 -0.276,-1.476 -0.48,-0.816 -1.512,-1.248 -2.544,-1.092 -0.54,0.084 -1.032,0.324 -1.428,0.684 -0.336,0.312 -0.6,0.696 -0.768,1.152 l 1.248,0.732 c 0.084,-0.348 0.252,-0.636 0.468,-0.84 0.192,-0.18 0.432,-0.288 0.696,-0.336 0.468,-0.072 0.924,0.108 1.116,0.432 0.096,0.144 0.12,0.324 0.096,0.54 -0.048,0.288 -0.216,0.648 -0.48,1.008 -0.924,1.236 -1.656,2.208 -3.3,4.3799999 l -0.864,1.128 h 6.252 v -1.416 z"
     inkscape:connector-curvature="0" /><path
     id="path1565"
     style="font-style:normal;font-variant:normal;font-weight:normal;font-stretch:normal;font-family:'ADAM.CG PRO';-inkscape-font-specification:'ADAM.CG PRO'"
     d="m 12.696,11.748 c 0.564,0 1.08,-0.144 1.548,-0.42 0.42,-0.252 0.78,-0.612 1.068,-1.068 0.504,-0.7919999 0.792,-1.8359999 0.792,-2.9519999 0,-1.116 -0.288,-2.172 -0.804,-2.964 -0.288,-0.468 -0.648,-0.828 -1.08,-1.08 -0.456,-0.288 -0.984,-0.42 -1.548,-0.42 -0.564,0 -1.092,0.132 -1.56,0.42 -0.42,0.252 -0.78,0.612 -1.08,1.056 -0.5040001,0.792 -0.7920001,1.848 -0.7920001,2.964 0,1.116 0.288,2.172 0.8040001,2.9639999 0.3,0.456 0.66,0.828 1.092,1.08 0.468,0.276 0.996,0.42 1.56,0.42 z M 12.672,4.2360001 c 0.6,0 1.092,0.288 1.464,0.864 0.36,0.564 0.564,1.368 0.564,2.208 0,0.84 -0.204,1.644 -0.564,2.196 C 13.776,10.068 13.296,10.356 12.696,10.356 c -0.612,0 -1.116,-0.3 -1.488,-0.8639999 -0.36,-0.564 -0.576,-1.368 -0.576,-2.208 0,-0.84 0.216,-1.644 0.576,-2.196 0.36,-0.564 0.852,-0.852 1.464,-0.852 z"
     inkscape:connector-curvature="0" /><path
     id="path1567"
     style="font-style:normal;font-variant:normal;font-weight:normal;font-stretch:normal;font-family:'ADAM.CG PRO';-inkscape-font-specification:'ADAM.CG PRO'"
     d="m 19.223999,10.332 c 1.08,-1.4159999 1.692,-2.2439999 2.448,-3.2519999 0.42,-0.552 0.672,-1.116 0.744,-1.644 0.084,-0.54 -0.012,-1.044 -0.276,-1.476 -0.48,-0.816 -1.512,-1.248 -2.544,-1.092 -0.54,0.084 -1.032,0.324 -1.428,0.684 -0.336,0.312 -0.6,0.696 -0.768,1.152 l 1.248,0.732 c 0.084,-0.348 0.252,-0.636 0.468,-0.84 0.192,-0.18 0.432,-0.288 0.696,-0.336 0.468,-0.072 0.924,0.108 1.116,0.432 0.096,0.144 0.12,0.324 0.096,0.54 -0.048,0.288 -0.216,0.648 -0.48,1.008 -0.924,1.236 -1.656,2.208 -3.3,4.3799999 l -0.864,1.128 h 6.252 v -1.416 z"
     inkscape:connector-curvature="0" /><path
     id="path1569"
     style="font-style:normal;font-variant:normal;font-weight:normal;font-stretch:normal;font-family:'ADAM.CG PRO';-inkscape-font-specification:'ADAM.CG PRO'"
     d="m 27.179999,11.748 c 0.564,0 1.08,-0.144 1.548,-0.42 0.42,-0.252 0.78,-0.612 1.068,-1.068 0.504,-0.7919999 0.792,-1.8359999 0.792,-2.9519999 0,-1.116 -0.288,-2.172 -0.804,-2.964 -0.288,-0.468 -0.648,-0.828 -1.08,-1.08 -0.456,-0.288 -0.984,-0.42 -1.548,-0.42 -0.564,0 -1.092,0.132 -1.56,0.42 -0.42,0.252 -0.78,0.612 -1.08,1.056 -0.504,0.792 -0.792,1.848 -0.792,2.964 0,1.116 0.288,2.172 0.804,2.9639999 0.3,0.456 0.66,0.828 1.092,1.08 0.468,0.276 0.996,0.42 1.56,0.42 z m -0.024,-7.5119999 c 0.6,0 1.092,0.288 1.464,0.864 0.36,0.564 0.564,1.368 0.564,2.208 0,0.84 -0.204,1.644 -0.564,2.196 -0.36,0.5639999 -0.84,0.8519999 -1.44,0.8519999 -0.612,0 -1.116,-0.3 -1.488,-0.8639999 -0.36,-0.564 -0.576,-1.368 -0.576,-2.208 0,-0.84 0.216,-1.644 0.576,-2.196 0.36,-0.564 0.852,-0.852 1.464,-0.852 z"
     inkscape:connector-curvature="0" /></g>
<g
   id="text883"
   style="font-variant:normal;font-weight:normal;font-stretch:normal;font-size:36.84939957px;font-family:abeatbyKai;-inkscape-font-specification:AbeatbyKai;writing-mode:lr-tb;fill:#000000;fill-opacity:1;fill-rule:nonzero;stroke:none"
   transform="matrix(1,0,0,-1,133.4663,64.3281)"
   aria-label="cape town"><path
     id="path1538"
     d="m 21.777995,-6.8908377 h -3.169048 c -1.621374,2.579458 -4.053434,3.9060363 -7.333031,3.9428857 C 8.9912535,-2.9111026 7.0013859,-3.7217894 5.3431629,-5.3431629 3.68494,-7.0013859 2.8374038,-8.9544041 2.8374038,-11.239067 c 0,-2.284663 0.8843856,-4.27453 2.6900061,-5.932753 1.7319218,-1.621374 3.6480906,-2.395211 5.8222051,-2.358362 3.242747,0.0737 5.637958,1.473976 7.222482,4.163982 h 3.169049 l -0.405344,-0.921235 c -0.773837,-1.731921 -2.100415,-3.132199 -3.906036,-4.27453 -1.916169,-1.179181 -3.979735,-1.768771 -6.190699,-1.731922 -3.0953497,0.03685 -5.7485065,1.179181 -7.9963198,3.353296 -2.210964,2.174114 -3.2795966,4.753572 -3.2427472,7.812072 0.0368494,3.0216511 1.1423314,5.6011091 3.3532954,7.7015248 2.2109639,2.1004158 4.8272713,3.1690484 7.8857716,3.2058978 4.606175,0.0368494 8.033169,-1.9530182 10.244133,-6.0433015 z"
     inkscape:connector-curvature="0" /><path
     id="path1540"
     d="m 43.777087,-11.091669 v -0.147398 c 0.110548,-2.911102 -0.884386,-5.453711 -2.947952,-7.590976 -2.063566,-2.174115 -4.569326,-3.279597 -7.517278,-3.390145 -3.0585,-0.110548 -5.674807,0.921235 -7.848922,3.132199 -2.174114,2.174115 -3.279596,4.827271 -3.279596,7.885772 0,2.9479515 1.031783,5.4905601 3.0585,7.6278252 2.026717,2.1372652 4.495627,3.2427472 7.406729,3.3532954 3.316446,0.1105482 6.117001,-1.1423314 8.401663,-3.7586388 v 3.27959661 h 2.726856 z m -16.361134,-6.043302 c 1.584525,-1.584524 3.463844,-2.358361 5.711657,-2.358361 2.137266,0 3.979736,0.773837 5.490561,2.358361 1.510825,1.584524 2.321512,3.463844 2.358362,5.674808 0.03685,2.3215119 -0.736988,4.3482289 -2.395211,6.0801507 -1.621374,1.6950723 -3.574392,2.5057591 -5.895904,2.3952109 -2.137266,-0.1105482 -3.979736,-0.9580844 -5.490561,-2.6163073 -1.510825,-1.658223 -2.210964,-3.6112412 -2.174114,-5.8222053 0.03685,-2.247813 0.810686,-4.127133 2.39521,-5.711657 z"
     inkscape:connector-curvature="0" /><path
     id="path1542"
     d="m 49.488745,-3.9060364 c 2.100416,2.3583616 4.679874,3.6112412 7.775224,3.7217894 3.02165,0.1105482 5.637958,-0.9580844 7.812072,-3.132199 2.174115,-2.2109639 3.279597,-4.8641207 3.279597,-7.922621 0,-2.947952 -1.031783,-5.49056 -3.0585,-7.627826 -2.026717,-2.137265 -4.495627,-3.242747 -7.406729,-3.316446 -3.021651,-0.110548 -5.637959,0.958085 -7.848923,3.169049 -2.174114,2.174114 -3.279596,4.790422 -3.279596,7.812073 0,0.03685 0,0.147397 0,0.147397 V 6.6697413 h 2.726855 z M 63.34412,-16.803326 c 1.510825,1.658223 2.247813,3.574392 2.210964,5.785356 -0.03685,2.2478129 -0.847537,4.1271323 -2.432061,5.7116565 -1.584524,1.5845241 -3.463843,2.3583615 -5.674807,2.3583615 -2.174115,0 -4.016585,-0.7738374 -5.52741,-2.3583615 -1.510826,-1.5845242 -2.321512,-3.4638436 -2.358362,-5.6748075 -0.03685,-2.321512 0.736988,-4.31138 2.358362,-6.043302 1.658223,-1.731921 3.611241,-2.505759 5.932753,-2.395211 2.174115,0.0737 3.979735,0.958085 5.490561,2.616308 z"
     inkscape:connector-curvature="0" /><path
     id="path1544"
     d="m 89.322942,-7.5909763 c -1.437127,3.0216508 -3.795488,4.5693255 -7.111934,4.6061749 -2.137265,0.036849 -3.979735,-0.6632892 -5.56426,-2.0267169 -1.584524,-1.3634278 -2.468909,-3.132199 -2.690006,-5.2326147 h 18.866893 v -1.510825 c 0,-2.616308 -0.994934,-4.974669 -2.984802,-7.075085 -2.063566,-2.137265 -4.495626,-3.279597 -7.296181,-3.463844 -3.132199,-0.184247 -5.822205,0.884386 -8.143717,3.169049 -2.284663,2.247813 -3.390145,4.974669 -3.316446,8.106868 0.03685,2.9848009 1.179181,5.5274095 3.390145,7.701524 2.210964,2.1372652 4.753572,3.1690484 7.627825,3.132199 2.284663,-0.0368494 4.34823,-0.70013859 6.227549,-2.026717 1.879319,-1.3265784 3.205898,-3.1321989 3.979735,-5.3800123 z m -15.3662,-5.2326147 c 0.405344,-1.989868 1.326579,-3.611241 2.837404,-4.827271 1.510825,-1.216031 3.279597,-1.84247 5.306313,-1.805621 2.026717,0.03685 3.758639,0.663289 5.195766,1.879319 1.437126,1.216031 2.358361,2.800555 2.763705,4.753573 z"
     inkscape:connector-curvature="0" /><path
     id="path1546"
     d="m 121.41877,-2.579458 c -3.2059,0 -4.82727,-1.5476748 -4.82727,-4.6798737 V -19.124838 h 4.82727 v -2.616308 h -4.82727 v -7.33303 h -2.8374 v 22.2938865 c 0,4.3482291 2.54261,6.5223437 7.66467,6.5223437 z"
     inkscape:connector-curvature="0" /><path
     id="path1548"
     d="m 142.42294,-11.202217 c 0,-2.947952 -1.03178,-5.490561 -3.0585,-7.627826 -2.02672,-2.174115 -4.53248,-3.279597 -7.44358,-3.390145 -3.02165,-0.110548 -5.63796,0.958084 -7.81207,3.169048 -2.17411,2.174115 -3.2796,4.827272 -3.2796,7.885772 0,2.9479519 0.99494,5.4905605 3.02165,7.6278256 2.02672,2.1372652 4.53248,3.2427472 7.44358,3.316446 3.02165,0.1105482 5.63796,-0.9580844 7.81208,-3.132199 2.21096,-2.2109639 3.31644,-4.8272713 3.31644,-7.8489216 z m -16.58223,5.6379577 c -1.51082,-1.658223 -2.21096,-3.6112412 -2.17411,-5.8222047 0.0369,-2.247814 0.81068,-4.127133 2.39521,-5.711657 1.58452,-1.584525 3.46384,-2.395211 5.71165,-2.358362 2.13727,0 3.94289,0.773837 5.45372,2.358362 1.51082,1.584524 2.32151,3.463843 2.39521,5.674807 0.0369,2.3215123 -0.73699,4.3113799 -2.39521,6.0433017 -1.62138,1.7319217 -3.5744,2.5057591 -5.89591,2.3952109 -2.17411,-0.073699 -3.97973,-0.921235 -5.49056,-2.5794579 z"
     inkscape:connector-curvature="0" /><path
     id="path1550"
     d="m 173.19218,-21.704296 h -3.02165 l -6.63289,17.3929163 -4.79042,-14.8503083 h -2.39521 l -4.86412,14.9608564 -6.52235,-17.5034644 h -2.9848 l 7.95947,21.00415741 h 3.2059 l 4.31138,-13.89222341 4.56933,13.89222341 h 3.27959 z"
     inkscape:connector-curvature="0" /><path
     id="path1552"
     d="m 192.02222,-12.676193 c 0,-2.726856 -0.88439,-4.974669 -2.65316,-6.78029 -1.76877,-1.805621 -3.97973,-2.726856 -6.63289,-2.726856 -2.69001,0 -4.90097,0.921235 -6.66974,2.726856 -1.76877,1.805621 -2.65316,4.053434 -2.65316,6.78029 v 11.97605441 h 2.8374 V -12.970989 c 0,-1.768771 0.62644,-3.279596 1.91617,-4.569325 1.28973,-1.289729 2.83741,-1.916169 4.56933,-1.916169 1.73192,0 3.2059,0.62644 4.49563,1.916169 1.28972,1.289729 1.95301,2.800554 1.95301,4.569325 v 12.27085041 h 2.83741 z"
     inkscape:connector-curvature="0" /></g>
<g
   id="g1382"
   transform="matrix(0.96457207,0.7705372,-0.7705372,0.96457207,386.51865,-68.783098)"><rect
     ry="1.7138622"
     transform="scale(1,-1)"
     y="-167.96048"
     x="-55.810028"
     height="34.155937"
     width="118.91904"
     id="rect1377"
     style="fill:#ffffff;fill-opacity:0.61083745;stroke:#ff0000;stroke-width:3.77836347;stroke-miterlimit:4;stroke-dasharray:none;stroke-opacity:1" /><text
     transform="scale(1,-1)"
     id="text1375"
     y="-140.06909"
     x="-53.033649"
     style="font-style:normal;font-weight:normal;font-size:30px;line-height:1.25;font-family:sans-serif;letter-spacing:0px;word-spacing:0px;fill:#000000;fill-opacity:1;stroke:none;stroke-width:0.75"
     xml:space="preserve"><tspan
       style="font-style:normal;font-variant:normal;font-weight:normal;font-stretch:normal;font-family:Roboto;-inkscape-font-specification:Roboto;fill:#ff0000;fill-opacity:1;stroke-width:0.75"
       y="-140.06909"
       x="-53.033649"
       id="tspan1373"
       sodipodi:role="line">ONLINE!</tspan></text>
</g></g></svg>